<svg width="626" height="323" viewBox="0 0 626 323" fill="none" xmlns="http://www.w3.org/2000/svg">
<path d="M626 268.619C626 275.078 565.104 298.414 533.196 298.414C501.288 298.414 448.733 285.287 448.733 278.62C448.733 271.952 474.593 266.535 506.501 266.535C538.409 266.535 626 261.951 626 268.619Z" fill="#BED1DC"/>
<path d="M566.355 310.915C566.355 317.583 439.765 323 283.562 323C127.358 323 0.768555 317.583 0.768555 310.915C0.768555 304.456 127.358 299.039 283.562 299.039C439.765 299.039 566.355 304.456 566.355 310.915Z" fill="#BED1DC"/>
<path d="M537.367 226.322H508.17V198.194H537.367V226.322Z" fill="#D79157"/>
<path d="M573.028 226.322H543.832V198.194H573.028V226.322Z" fill="#D79157"/>
<path d="M449.569 34.2158L433.719 49.426H393.26V248.825H420.998H449.569V34.2158Z" fill="#260437"/>
<path d="M449.569 34.2158L589.297 72.137V271.536L449.569 233.614V34.2158Z" fill="#3C1750"/>
<path d="M532.989 286.954L393.26 248.824V49.4259L532.989 87.5554V286.954Z" fill="#D76CB7"/>
<path d="M532.988 286.954L549.255 271.536H589.296V72.137L545.501 73.1788L532.988 87.5555V286.954Z" fill="#964C80"/>
<path d="M447.067 79.4296C447.067 81.7215 445.19 83.5967 442.688 83.5967C440.394 83.5967 438.517 81.7215 438.517 79.4296C438.517 76.9293 440.394 75.0541 442.688 75.0541C445.19 75.0541 447.067 76.9293 447.067 79.4296Z" fill="#0D001A"/>
<path d="M489.611 89.6391C489.611 91.931 487.734 93.8062 485.231 93.8062C482.937 93.8062 481.06 91.931 481.06 89.6391C481.06 87.1388 482.937 85.2635 485.231 85.2635C487.734 85.2635 489.611 87.1388 489.611 89.6391Z" fill="#0D001A"/>
<path d="M489.611 53.5931C489.611 56.0934 487.734 57.9686 485.231 57.9686C482.937 57.9686 481.06 56.0934 481.06 53.5931C481.06 51.3011 482.937 49.4259 485.231 49.4259C487.734 49.4259 489.611 51.3011 489.611 53.5931Z" fill="#0D001A"/>
<path d="M532.154 63.8027C532.154 66.0946 530.277 68.1782 527.775 68.1782C525.48 68.1782 523.604 66.0946 523.604 63.8027C523.604 61.5107 525.48 59.6355 527.775 59.6355C530.277 59.6355 532.154 61.5107 532.154 63.8027Z" fill="#0D001A"/>
<path d="M442.686 77.5543C442.686 61.9275 447.066 38.383 467.503 44.0087C484.396 48.5925 485.23 74.0122 485.23 89.6391" stroke="#ED3B96" stroke-width="2" stroke-linecap="round" stroke-linejoin="round"/>
<path d="M485.231 53.1764C485.231 37.5495 489.402 14.0051 510.049 19.4224C526.941 24.0062 527.776 49.4259 527.776 65.0528" stroke="#ED3B96" stroke-width="2" stroke-linecap="round" stroke-linejoin="round"/>
<path d="M27.6719 265.91L33.0942 264.868L32.4686 256.325H26.4207L27.6719 265.91Z" fill="#FEFEFE"/>
<path d="M421.829 212.987C421.829 218.613 417.241 223.196 411.402 223.196L107.962 227.155C107.962 227.155 97.1179 218.613 97.1179 212.987V20.2558C97.1179 14.4218 101.706 9.83789 107.545 9.83789H411.402C417.241 9.83789 426.417 20.0474 426.417 20.0474L421.829 212.987Z" fill="#2C073D"/>
<path d="M429.964 220.488C429.964 226.113 425.376 230.697 419.536 230.697H115.68C110.049 230.697 105.252 226.113 105.252 220.488V27.7566C105.252 22.131 110.049 17.5471 115.68 17.5471H419.536C425.376 17.5471 429.964 22.131 429.964 27.7566V220.488Z" fill="#44205A"/>
<path d="M28.7144 285.704V300.706C28.7144 306.331 33.9281 310.915 40.1846 310.915H482.726C488.983 310.915 494.197 306.331 494.197 300.706V285.704H28.7144Z" fill="#DFE0E1"/>
<path d="M419.952 217.362H115.262V36.9244H419.952V217.362Z" fill="#A699C5"/>
<path d="M119.641 214.445V36.9244H115.262V217.362H419.952V214.445H119.641Z" fill="#82789B"/>
<path d="M271.883 28.5901C271.883 31.0904 270.006 32.9656 267.712 32.9656C265.21 32.9656 263.333 31.0904 263.333 28.5901C263.333 26.2982 265.21 24.423 267.712 24.423C270.006 24.423 271.883 26.2982 271.883 28.5901Z" fill="#A699C5"/>
<g style="mix-blend-mode:soft-light">
<path d="M115.262 186.942V147.563L300.662 36.9244H364.061L115.262 186.942Z" fill="#FEFEFE"/>
</g>
<g style="mix-blend-mode:soft-light">
<path d="M115.262 214.029V199.86L385.75 36.9244H405.354L115.262 214.029Z" fill="#FEFEFE"/>
</g>
<path d="M494.197 285.704H28.7144L110.049 230.697H425.167L494.197 285.704Z" fill="#FEFEFE"/>
<path d="M115.264 238.615L66.4634 271.536H459.162L417.661 238.615H115.264Z" fill="#DBDCDD"/>
<path d="M464.584 197.568H179.08V0.87854H464.584V197.568Z" fill="#FEFEFE"/>
<path d="M464.584 24.423H179.08V0.87854H464.584V24.423Z" fill="#252A2B"/>
<path d="M419.746 11.7132C419.746 15.8803 416.409 19.2141 412.238 19.2141C408.276 19.2141 404.939 15.8803 404.939 11.7132C404.939 7.54599 408.276 4.21228 412.238 4.21228C416.409 4.21228 419.746 7.54599 419.746 11.7132Z" fill="#FEFEFE"/>
<path d="M440.392 11.7132C440.392 15.8803 437.055 19.2141 432.884 19.2141C428.922 19.2141 425.376 15.8803 425.376 11.7132C425.376 7.54599 428.922 4.21228 432.884 4.21228C437.055 4.21228 440.392 7.54599 440.392 11.7132Z" fill="#FEFEFE"/>
<path d="M458.744 11.7132C458.744 15.8803 455.407 19.2141 451.236 19.2141C447.274 19.2141 443.937 15.8803 443.937 11.7132C443.937 7.54599 447.274 4.21228 451.236 4.21228C455.407 4.21228 458.744 7.54599 458.744 11.7132Z" fill="#FEFEFE"/>
<path d="M374.49 11.5048C374.49 14.6302 371.987 17.1305 368.859 17.1305H191.175C188.047 17.1305 185.544 14.6302 185.544 11.5048C185.544 8.37944 188.047 5.67078 191.175 5.67078H368.859C371.987 5.67078 374.49 8.37944 374.49 11.5048Z" fill="#FEFEFE"/>
<path d="M300.872 155.272H202.02V56.5101H300.872V155.272Z" fill="#D76CB7"/>
<path d="M447.065 69.6367H326.732V56.5101H447.065V69.6367Z" fill="#D1D2D3"/>
<path d="M447.065 82.7632H326.732V73.3871H447.065V82.7632Z" fill="#D1D2D3"/>
<path d="M404.938 96.0982H326.732V86.722H404.938V96.0982Z" fill="#D1D2D3"/>
<path d="M432.884 130.477H326.732V121.101H432.884V130.477Z" fill="#D1D2D3"/>
<path d="M404.938 143.812H326.732V134.436H404.938V143.812Z" fill="#D1D2D3"/>
<path d="M244.983 135.686C244.983 139.02 242.272 141.729 238.727 141.729C235.39 141.729 232.679 139.02 232.679 135.686C232.679 132.144 235.39 129.435 238.727 129.435C242.272 129.435 244.983 132.144 244.983 135.686Z" fill="#FEFEFE"/>
<path d="M278.144 135.686C278.144 139.02 275.433 141.729 272.096 141.729C268.759 141.729 266.048 139.02 266.048 135.686C266.048 132.144 268.759 129.435 272.096 129.435C275.433 129.435 278.144 132.144 278.144 135.686Z" fill="#FEFEFE"/>
<path d="M243.315 92.7645H289.613L276.891 122.351L234.347 121.101C234.347 121.101 228.716 100.682 225.38 88.389C222.251 76.0958 213.284 78.1794 213.284 78.1794" stroke="#FEFEFE" stroke-width="2.8" stroke-linecap="round" stroke-linejoin="round"/>
</svg>
