<svg width="455" height="455" viewBox="0 0 455 455" fill="none" xmlns="http://www.w3.org/2000/svg">
<path d="M96.8239 108.524L107.295 111.413L99.5576 113.305C95.61 113.937 93.8428 115.635 93.123 117.834L90.7087 137.317L87.7403 117.812C87.0032 115.975 85.519 114.539 83.659 113.864L73.618 111.413L84.2205 108.41C85.9895 107.683 87.3809 106.261 88.0679 104.475L90.7097 82.4114L92.6043 103.994C93.224 106.08 94.7855 107.757 96.8239 108.524Z" fill="#EBEBEB"/>
<path d="M111.812 138.051L115.565 139.086L112.792 139.764C111.377 139.991 110.743 140.6 110.485 141.388L109.62 148.372L108.556 141.38C108.292 140.721 107.759 140.207 107.092 139.965L103.493 139.087L107.294 138.011C107.928 137.75 108.427 137.24 108.673 136.6L109.62 128.69L110.299 136.427C110.521 137.175 111.081 137.776 111.812 138.051Z" fill="#EBEBEB"/>
<path d="M41.0349 168.243L11.371 268.506L136.784 305.611L166.447 205.347L41.0349 168.243Z" fill="#FAFAFA"/>
<path d="M166.453 205.351C166.453 205.351 166.238 205.301 165.839 205.19C165.423 205.072 164.838 204.906 164.074 204.688C162.507 204.234 160.22 203.572 157.249 202.711C151.28 200.966 142.578 198.424 131.548 195.2C109.508 188.722 78.1817 179.516 40.9436 168.569L41.365 168.341C32.5471 198.187 22.437 232.4 11.7399 268.606L11.7372 268.617L11.4815 268.146C57.9042 281.906 101.046 294.693 136.876 305.314L136.485 305.527C145.483 275.356 152.941 250.346 158.157 232.854C160.781 224.111 162.839 217.252 164.249 212.553C164.955 210.223 165.497 208.433 165.869 207.201C166.24 205.989 166.453 205.351 166.453 205.351C166.453 205.351 166.297 205.958 165.955 207.156C165.602 208.378 165.089 210.156 164.42 212.471C163.051 217.163 161.052 224.016 158.505 232.75C153.35 250.309 145.98 275.416 137.09 305.705L137 306.007L136.697 305.917C100.857 295.332 57.7031 282.587 11.2667 268.872L10.9027 268.765L11.0101 268.401L11.0128 268.39C21.7372 232.193 31.8728 197.987 40.7134 168.148L40.8099 167.822L41.1347 167.919C78.4211 179.023 109.785 188.365 131.854 194.937C142.831 198.225 151.49 200.82 157.43 202.599C160.364 203.485 162.621 204.167 164.168 204.634C164.912 204.863 165.481 205.038 165.886 205.163C166.27 205.284 166.453 205.351 166.453 205.351Z" fill="#E0E0E0"/>
<path d="M43.4914 175.833L17.5621 263.473L134.163 297.971L160.092 210.33L43.4914 175.833Z" fill="#EBEBEB"/>
<path d="M17.5648 263.477L74.4089 221.05L89.5522 262.598L112.054 249.44L134.167 297.977L17.5648 263.477Z" fill="#E0E0E0"/>
<path d="M112.32 225.009C110.82 230.08 105.494 232.975 100.423 231.474C95.3526 229.973 92.4578 224.647 93.9584 219.577C95.459 214.505 100.785 211.611 105.856 213.112C110.926 214.613 113.82 219.939 112.32 225.009Z" fill="#E0E0E0"/>
<path d="M271.358 250.605L260.88 361.103L399.094 374.21L409.572 263.711L271.358 250.605Z" fill="#FAFAFA"/>
<path d="M409.576 263.687C409.576 263.687 409.342 263.679 408.904 263.644C408.446 263.606 407.803 263.551 406.963 263.481C405.237 263.328 402.72 263.104 399.45 262.812C392.876 262.212 383.292 261.336 371.143 260.225C346.861 257.968 312.35 254.759 271.324 250.944L271.716 250.62C268.611 283.511 265.051 321.216 261.284 361.114L261.283 361.126L260.921 360.688C312.089 365.563 359.64 370.094 399.133 373.858L398.768 374.159C401.994 340.892 404.668 313.318 406.539 294.032C407.491 284.388 408.237 276.822 408.748 271.64C409.008 269.069 409.209 267.093 409.347 265.734C409.485 264.394 409.576 263.687 409.576 263.687C409.576 263.687 409.538 264.35 409.425 265.669C409.306 267.015 409.134 268.971 408.908 271.519C408.439 276.686 407.753 284.233 406.878 293.852C405.086 313.196 402.525 340.854 399.433 374.222L399.403 374.555L399.069 374.523C359.573 370.799 312.016 366.314 260.843 361.488L260.442 361.451L260.48 361.05L260.481 361.038C264.278 321.142 267.867 283.439 270.997 250.551L271.032 250.192L271.39 250.226C312.498 254.198 347.078 257.538 371.408 259.889C383.515 261.077 393.065 262.015 399.615 262.659C402.852 262.984 405.343 263.235 407.05 263.407C407.872 263.493 408.501 263.561 408.948 263.608C409.372 263.653 409.576 263.687 409.576 263.687Z" fill="#E0E0E0"/>
<path d="M275.464 258.013L266.305 354.599L394.809 366.784L403.968 270.198L275.464 258.013Z" fill="#EBEBEB"/>
<path d="M266.307 354.582L316.883 298.798L341.126 338.997L361.887 320.704L394.815 366.765L266.307 354.582Z" fill="#E0E0E0"/>
<path d="M357.187 295.198C356.657 300.786 351.698 304.886 346.109 304.357C340.521 303.827 336.42 298.868 336.95 293.279C337.48 287.691 342.439 283.591 348.028 284.12C353.616 284.65 357.716 289.609 357.187 295.198Z" fill="#E0E0E0"/>
<path d="M140.473 279.283L37.5911 304.357L57.6375 386.608L160.52 361.534L140.473 279.283Z" fill="#FAFAFA"/>
<path d="M140.457 279.28C140.457 279.28 140.287 279.333 139.962 279.417C139.622 279.504 139.145 279.626 138.522 279.785C137.241 280.105 135.371 280.572 132.941 281.179C128.053 282.388 120.928 284.149 111.896 286.382C93.8338 290.819 68.1618 297.123 37.644 304.619L37.846 304.287C43.8211 328.765 50.6697 356.826 57.9179 386.519L57.9197 386.528L57.5493 386.302C95.641 377.039 131.04 368.432 160.44 361.282L160.253 361.59C154.271 336.811 149.313 316.271 145.845 301.906C144.122 294.719 142.772 289.08 141.845 285.219C141.391 283.3 141.042 281.826 140.802 280.813C140.568 279.812 140.457 279.28 140.457 279.28C140.457 279.28 140.595 279.768 140.843 280.746C141.093 281.745 141.457 283.198 141.931 285.09C142.883 288.931 144.272 294.541 146.044 301.69C149.583 316.079 154.643 336.65 160.748 361.468L160.809 361.716L160.56 361.777C131.167 368.955 95.7766 377.597 57.694 386.897L57.3956 386.97L57.3228 386.672L57.3209 386.664C50.0955 356.965 43.2678 328.899 37.3109 304.416L37.2463 304.148L37.513 304.084C68.129 296.681 93.8829 290.454 112.004 286.073C121.025 283.906 128.142 282.197 133.023 281.026C135.437 280.453 137.294 280.012 138.568 279.709C139.182 279.566 139.651 279.456 139.985 279.379C140.302 279.306 140.457 279.28 140.457 279.28Z" fill="#E0E0E0"/>
<path d="M138.055 285.357L42.4006 308.67L59.9233 380.566L155.577 357.253L138.055 285.357Z" fill="#EBEBEB"/>
<path d="M59.9062 380.557L82.4242 327.727L109.933 350.643L120.327 332.277L155.557 357.248L59.9062 380.557Z" fill="#E0E0E0"/>
<path d="M110.57 315.069C111.584 319.229 109.034 323.422 104.875 324.436C100.715 325.45 96.5219 322.899 95.5082 318.74C94.4944 314.581 97.0442 310.387 101.204 309.374C105.363 308.36 109.557 310.91 110.57 315.069Z" fill="#E0E0E0"/>
<path d="M394.565 82.9755L249.013 109.701L270.379 226.066L415.931 199.341L394.565 82.9755Z" fill="#FAFAFA"/>
<path d="M394.547 82.9893C394.547 82.9893 394.305 83.0494 393.845 83.1404C393.365 83.2341 392.689 83.3652 391.807 83.5371C389.993 83.8811 387.347 84.3825 383.908 85.0341C376.992 86.3272 366.909 88.2136 354.129 90.6042C328.572 95.3435 292.25 102.079 249.07 110.085L249.378 109.639C255.749 144.27 263.052 183.969 270.78 225.979L270.783 225.991L270.284 225.647C324.173 215.782 374.252 206.614 415.843 199L415.558 199.415C409.201 164.363 403.932 135.309 400.247 114.989C398.422 104.822 396.989 96.8468 396.007 91.385C395.527 88.6714 395.159 86.5875 394.905 85.1551C394.659 83.741 394.547 82.9893 394.547 82.9893C394.547 82.9893 394.701 83.68 394.968 85.065C395.237 86.4792 395.629 88.5358 396.138 91.2139C397.158 96.6493 398.646 104.587 400.544 114.705C404.326 135.062 409.734 164.17 416.258 199.285L416.324 199.635L415.972 199.7C374.388 207.354 324.318 216.571 270.438 226.489L270.016 226.567L269.939 226.145L269.936 226.132C262.239 184.117 254.966 144.412 248.622 109.776L248.553 109.398L248.93 109.328C292.239 101.458 328.671 94.8384 354.304 90.1801C367.064 87.8815 377.13 86.0688 384.034 84.8257C387.449 84.2196 390.075 83.7528 391.876 83.4325C392.744 83.2832 393.408 83.1686 393.881 83.0867C394.328 83.0148 394.547 82.9893 394.547 82.9893Z" fill="#E0E0E0"/>
<path d="M390.703 91.2568L255.376 116.104L274.052 217.818L409.379 192.971L390.703 91.2568Z" fill="#EBEBEB"/>
<path d="M274.034 217.823L309.692 145.924L346.231 180.104L362.207 155.313L409.355 192.982L274.034 217.823Z" fill="#E0E0E0"/>
<path d="M349.977 130.523C351.057 136.408 347.163 142.054 341.278 143.135C335.393 144.215 329.747 140.32 328.667 134.436C327.587 128.551 331.481 122.905 337.366 121.825C343.251 120.744 348.897 124.639 349.977 130.523Z" fill="#E0E0E0"/>
<path d="M211.412 127.893L206.446 73.9557C206.246 58.9134 197.325 46.4928 182.295 47.1089L180.909 47.2472C166.961 48.6368 156.418 60.5023 156.683 74.5172C156.929 87.552 157.368 101.949 158.144 108.878C159.753 123.224 176.661 123.715 176.661 123.715L178.485 136.226C178.485 136.226 185.717 140.57 196.353 138.705C207.812 136.695 211.412 127.893 211.412 127.893Z" fill="#FFBE9D"/>
<path d="M176.635 123.7C176.635 123.7 185.862 123.338 194.906 116.316C194.906 116.316 191.628 127.091 177.166 127.225L176.635 123.7Z" fill="#EB996E"/>
<path d="M163.436 85.2097C163.505 86.2971 164.483 87.1343 165.62 87.0824C166.755 87.0306 167.62 86.1097 167.55 85.0222C167.48 83.9357 166.503 83.0967 165.368 83.1485C164.231 83.1995 163.366 84.1222 163.436 85.2097Z" fill="#263238"/>
<path d="M160.47 81.2367C160.751 81.4787 162.19 80.1738 164.399 79.9599C166.601 79.7142 168.335 80.6888 168.547 80.394C168.652 80.263 168.345 79.8052 167.589 79.3621C166.844 78.9198 165.61 78.5403 164.236 78.6832C162.862 78.8279 161.756 79.4494 161.143 80.0336C160.515 80.6224 160.334 81.1284 160.47 81.2367Z" fill="#263238"/>
<path d="M183.713 83.2405C183.783 84.327 184.761 85.1642 185.897 85.1124C187.032 85.0605 187.898 84.1396 187.828 83.0521C187.757 81.9656 186.779 81.1266 185.645 81.1784C184.509 81.2303 183.643 82.153 183.713 83.2405Z" fill="#263238"/>
<path d="M182.208 79.4858C182.49 79.7279 183.931 78.4229 186.138 78.2091C188.34 77.9634 190.073 78.938 190.286 78.6431C190.391 78.5121 190.086 78.0544 189.327 77.6121C188.582 77.1699 187.349 76.7904 185.974 76.9333C184.6 77.0779 183.494 77.6995 182.88 78.2837C182.255 78.8716 182.072 79.3784 182.208 79.4858Z" fill="#263238"/>
<path d="M175.829 96.6538C175.827 96.5273 174.431 96.4263 172.18 96.3645C171.61 96.3626 171.066 96.3035 170.933 95.9286C170.76 95.5345 170.934 94.9039 171.142 94.2205C171.536 92.8045 171.948 91.3185 172.38 89.7624C174.087 83.4206 175.261 78.23 175.006 78.1626C174.749 78.0962 173.159 83.1822 171.454 89.524C171.047 91.0865 170.657 92.5761 170.287 94.0003C170.138 94.6618 169.843 95.4253 170.215 96.2416C170.409 96.6475 170.853 96.9123 171.225 96.9732C171.597 97.047 171.914 97.0224 172.195 97.0106C174.444 96.9077 175.833 96.7794 175.829 96.6538Z" fill="#263238"/>
<path d="M182.477 97.5329C182.115 97.5475 182.35 99.9444 180.469 101.849C178.592 103.759 176.011 103.745 176.026 104.081C176.008 104.235 176.641 104.49 177.722 104.412C178.783 104.342 180.293 103.849 181.445 102.684C182.591 101.515 182.991 100.071 182.975 99.0799C182.966 98.0689 182.64 97.502 182.477 97.5329Z" fill="#263238"/>
<path d="M180.776 70.8917C181.054 71.4705 183.229 70.9664 185.849 71.02C188.471 71.021 190.635 71.5715 190.925 70.9991C191.053 70.7261 190.632 70.1974 189.731 69.7005C188.836 69.2037 187.446 68.786 185.874 68.7678C184.302 68.7532 182.904 69.1418 181.999 69.6195C181.086 70.0973 180.654 70.6169 180.776 70.8917Z" fill="#263238"/>
<path d="M160.645 74.7675C161.084 75.2297 162.551 74.5582 164.378 74.3516C166.196 74.0813 167.788 74.3516 168.092 73.7919C168.223 73.5217 167.929 73.0439 167.206 72.6362C166.493 72.2295 165.339 71.9547 164.086 72.1175C162.833 72.2823 161.79 72.8455 161.205 73.4225C160.61 74.0021 160.449 74.54 160.645 74.7675Z" fill="#263238"/>
<path d="M157.407 67.7914C157.407 67.7914 160.299 58.4184 164.427 55.8877C169.425 52.8228 172.259 58.362 177.124 56.4646C181.989 54.5673 186.758 51.6289 192.258 54.9877C198.278 58.6641 195.951 61.8955 196.932 68.2346C200.909 93.9339 206.356 100.771 206.485 88.4657C206.5 87.118 210.094 85.6884 210.082 80C210.064 72.6244 209.462 63.7264 207.314 58.7041C205.504 54.4717 202.713 51.7008 197.913 48.8179C190.337 44.267 180.639 45.1196 174.127 46.4364C167.615 47.7541 155.686 56.5884 157.407 67.7914Z" fill="#263238"/>
<path d="M205.532 88.1645C205.401 85.9386 207.137 83.9976 209.366 83.9876C212.07 83.9757 215.203 85.1997 215.578 90.7525C216.243 100.603 206.216 99.2392 206.179 98.958C206.155 98.7669 205.773 92.2895 205.532 88.1645Z" fill="#FFBE9D"/>
<path d="M208.072 95.1078C208.113 95.0732 208.253 95.2161 208.551 95.3298C208.842 95.4399 209.335 95.4964 209.836 95.2698C210.851 94.8175 211.616 93.1067 211.543 91.3277C211.508 90.4295 211.262 89.5886 210.897 88.9034C210.548 88.2027 210.048 87.7313 209.518 87.6731C208.988 87.5876 208.638 87.9261 208.537 88.2118C208.423 88.4957 208.498 88.6887 208.447 88.7087C208.422 88.7351 208.225 88.5576 208.276 88.1454C208.304 87.947 208.404 87.7068 208.622 87.502C208.845 87.2936 209.186 87.1726 209.554 87.1872C210.317 87.1881 211.048 87.8414 211.449 88.5931C211.894 89.3457 212.19 90.2903 212.23 91.2985C212.301 93.2878 211.41 95.2143 210.013 95.722C209.333 95.9495 208.741 95.7794 208.426 95.5673C208.106 95.3444 208.04 95.1278 208.072 95.1078Z" fill="#EB996E"/>
<path d="M203.443 69.1582C202.255 70.1556 200.997 71.1875 199.475 71.4933C197.954 71.7981 196.108 71.091 195.698 69.5941C195.513 68.9216 195.602 68.1126 195.099 67.6285C194.501 67.0515 193.53 67.3473 192.717 67.5166C189.892 68.1044 186.767 66.3763 185.763 63.6709C185.143 64.8339 183.439 64.9558 182.266 64.3552C181.093 63.7546 180.268 62.6626 179.307 61.7608C178.346 60.859 177.049 60.0964 175.768 60.4104C175.052 60.586 174.416 61.0856 173.679 61.0938C172.378 61.1074 171.598 59.6605 171.275 58.4002C170.952 57.1398 170.652 55.662 169.491 55.075C168.414 54.5309 167.14 55.035 165.97 55.328C164.801 55.621 163.24 55.4955 162.821 54.3643C162.6 53.771 162.798 53.1049 163.082 52.5398C164.371 49.9799 167.599 48.5785 170.349 49.3839C170.986 46.0433 173.769 43.215 177.1 42.5252C180.43 41.8345 184.107 43.3224 186.02 46.1352C187.908 44.0449 190.845 42.9547 193.64 43.3051C196.434 43.6564 199.01 45.439 200.323 47.9306C202.649 47.0643 205.463 47.7168 207.171 49.5177C208.879 51.3195 209.381 54.165 208.392 56.4409C210.257 57.2736 211.943 58.877 212.183 60.9063C212.422 62.9356 210.644 65.1578 208.629 64.8184C209.579 66.3217 209.149 68.5339 207.704 69.5713C206.259 70.6087 204.025 70.3084 202.904 68.9261" fill="#263238"/>
<path d="M169.908 52.3468C169.9 52.3487 169.907 52.4096 169.928 52.527C169.952 52.6435 169.977 52.821 170.043 53.0448C170.178 53.4889 170.427 54.1423 170.944 54.8657C171.463 55.5773 172.237 56.3818 173.353 56.9706C174.449 57.5693 175.909 57.9625 177.49 57.7168L177.302 57.5156C177.08 58.3856 177.264 59.3857 177.768 60.2074C178.252 61.0465 178.954 61.7617 179.689 62.4551C180.064 62.7855 180.4 63.184 180.901 63.4725C181.387 63.7482 181.95 63.8802 182.514 63.8947C183.635 63.9266 184.851 63.4589 185.562 62.4469L185.184 62.3787C185.628 64.3061 186.933 66.1488 188.816 67.1635C189.817 67.745 191.013 68.0425 192.145 67.8987C193.281 67.7741 194.304 67.3355 195.254 66.885L194.98 66.7958C195.63 67.9643 196.544 68.9243 197.606 69.595C198.649 70.2657 199.983 70.5878 201.12 70.1856C203.389 69.4639 204.734 67.3837 204.863 65.5373L204.651 65.6629C205.863 66.1752 207.103 66.1124 208.074 65.8221C209.061 65.5391 209.804 65.0241 210.323 64.5381C210.842 64.0431 211.131 63.5599 211.301 63.2286C211.453 62.8865 211.51 62.6999 211.499 62.6954C211.446 62.6599 211.248 63.4743 210.211 64.4153C209.691 64.8666 208.96 65.3426 208.01 65.5919C207.073 65.8494 205.896 65.8813 204.774 65.3862L204.579 65.3007L204.562 65.5127C204.419 67.2372 203.117 69.1837 201.011 69.828C199.979 70.181 198.806 69.8917 197.818 69.2565C196.825 68.6231 195.951 67.6967 195.347 66.5984L195.251 66.4246L195.073 66.5083C194.137 66.9496 193.149 67.3637 192.099 67.4756C191.05 67.603 189.977 67.34 189.023 66.7885C187.244 65.8276 186.02 64.1041 185.591 62.2804L185.482 61.8218L185.212 62.2122C184.613 63.0776 183.529 63.5162 182.52 63.4898C182.014 63.4798 181.515 63.3642 181.092 63.1276C180.679 62.9001 180.33 62.5079 179.951 62.1748C179.216 61.4951 178.536 60.8071 178.077 60.0272C177.598 59.2592 177.434 58.3811 177.619 57.5948L177.676 57.3528L177.432 57.3937C175.944 57.644 174.541 57.2963 173.473 56.7385C172.386 56.1925 171.617 55.4327 171.091 54.7565C170.051 53.3606 169.976 52.3177 169.908 52.3468Z" fill="#455A64"/>
<path d="M209.408 70.0136C209.453 70.0446 209.083 70.7025 208.289 71.6234C207.498 72.5434 206.242 73.6937 204.644 74.6492C203.041 75.601 201.431 76.1561 200.246 76.4137C199.057 76.6739 198.303 76.6857 198.297 76.6311C198.259 76.4783 201.277 76.1297 204.402 74.2415C207.548 72.396 209.293 69.9081 209.408 70.0136Z" fill="white"/>
<path d="M210.082 75.0013C210.124 75.0413 209.704 75.5973 208.896 76.3799C208.09 77.1625 206.874 78.149 205.392 79.0244C203.908 79.8962 202.456 80.4813 201.381 80.8071C200.305 81.1347 199.615 81.233 199.6 81.1766C199.558 81.0328 202.248 80.3448 205.152 78.6167C208.071 76.9141 209.976 74.8939 210.082 75.0013Z" fill="white"/>
<path d="M177.779 131.379L152.607 138.442C149.616 139.266 146.986 141.065 145.134 143.554L126.434 169.773L132.332 176.53L271.732 176.596C271.732 176.596 266.39 157.013 264.635 151.001C261.989 141.934 258.398 139.368 255.119 136.052C254.127 135.049 251.267 133.276 249.888 132.976C244.098 131.713 216.634 125.333 211.412 125.48C211.412 125.48 206.036 138.277 193.424 138.155C180.812 138.033 177.779 131.379 177.779 131.379Z" fill="#455A64"/>
<path d="M236.181 154.779C236.272 154.803 236.541 153.597 237.393 151.825C238.228 150.05 239.741 147.766 241.836 145.616C243.931 143.462 246.1 141.788 247.657 140.569C249.223 139.356 250.189 138.597 250.145 138.534C250.104 138.477 249.062 139.127 247.434 140.267C245.815 141.413 243.588 143.055 241.455 145.246C239.321 147.436 237.815 149.816 237.051 151.67C236.661 152.593 236.424 153.371 236.303 153.917C236.181 154.463 236.149 154.772 236.181 154.779Z" fill="#263238"/>
<path d="M155.264 170.231C155.335 170.23 155.383 169.065 155.362 167.184C155.341 165.303 155.241 162.705 155.024 159.842C154.805 156.98 154.509 154.395 154.244 152.533C153.979 150.671 153.755 149.528 153.685 149.538C153.611 149.548 153.703 150.707 153.871 152.577C154.045 154.614 154.259 157.116 154.494 159.883C154.681 162.653 154.849 165.16 154.987 167.199C155.104 169.072 155.189 170.232 155.264 170.231Z" fill="#263238"/>
<g opacity="0.3">
<path d="M146.623 173.957C148.995 173.255 151.405 172.359 153.165 170.62C154.924 168.881 155.865 166.096 154.812 163.858C158.171 171.304 166.267 176.341 174.431 176.064L139.672 176.496C141.8 175.233 144.251 174.66 146.623 173.957Z" fill="black"/>
</g>
<g opacity="0.3">
<path d="M233.504 176.531L234.089 163.017L224.598 176.515L233.504 176.531Z" fill="black"/>
</g>
<path d="M233.504 176.531C233.375 176.524 233.47 172.94 233.714 168.528C233.959 164.115 234.262 160.544 234.391 160.55C234.52 160.558 234.426 164.14 234.181 168.554C233.935 172.966 233.632 176.537 233.504 176.531Z" fill="#263238"/>
<path d="M312.395 68.6367L326.384 48.6913L303.644 58.664L304.912 28.2527L287.158 48.1772L272.494 24.3943L265.409 51.4132L243.187 48.8297L257.934 72.2103L232.94 89.6232L264.055 82.4496L265.059 107.131L285.826 90.4722L307.641 108.793L305.006 84.731L332.438 82.5288L312.395 68.6367Z" fill="white"/>
<path d="M312.395 68.6368C312.395 68.6368 312.817 68.9507 313.677 69.5586C314.553 70.1756 315.836 71.0774 317.513 72.2567C320.921 74.6409 325.924 78.1408 332.359 82.6426L332.427 82.3914C324.963 82.9747 315.69 83.7 304.99 84.5372L304.79 84.5527L304.812 84.7529C305.591 91.9601 306.469 100.085 307.413 108.818L307.788 108.618C301.11 102.997 293.761 96.8131 285.991 90.2747L285.829 90.1382L285.664 90.2711C279.052 95.5673 272.099 101.136 264.885 106.916L265.333 107.12C265.018 99.2919 264.684 90.9745 264.34 82.4378L264.328 82.1111L264.005 82.1657C254.334 83.7883 243.302 87.583 232.889 89.3311L233.097 89.8753C240.414 85.2297 248.987 78.2445 256.819 73.2723L258.092 72.4642L258.344 72.3041L258.185 72.0511C253.182 64.1213 248.257 56.3144 243.436 48.6723L243.151 49.1255C250.703 50.0009 258.117 50.8608 265.374 51.7026L265.625 51.7317L265.689 51.4869C268.121 42.1985 270.482 33.175 272.763 24.4654L272.257 24.5409C277.37 32.8219 282.267 40.7525 286.937 48.3137L287.12 48.6095L287.351 48.3492C293.623 41.2958 299.539 34.6437 305.085 28.4075L304.678 28.2428C304.226 39.4813 303.817 49.6478 303.454 58.6559L303.442 58.9607L303.721 58.8379C312.703 54.8757 320.222 51.5588 326.439 48.816L326.271 48.6122C321.74 55.1324 318.259 60.141 315.901 63.5335C314.744 65.2088 313.863 66.4828 313.263 67.3509C312.675 68.2054 312.395 68.6368 312.395 68.6368C312.395 68.6368 312.724 68.1981 313.336 67.3418C313.952 66.4755 314.856 65.2061 316.045 63.5362C318.421 60.1792 321.93 55.2224 326.496 48.7696L326.779 48.3692L326.329 48.5658C320.101 51.2812 312.567 54.5663 303.568 58.4903L303.834 58.6723C304.221 49.6651 304.659 39.4995 305.143 28.2628L305.171 27.6112L304.736 28.0981C299.178 34.3234 293.249 40.9646 286.963 48.0052L287.376 48.0416C282.718 40.475 277.831 32.5371 272.73 24.2488L272.389 23.6955L272.223 24.3243C269.935 33.0312 267.566 42.0529 265.125 51.3395L265.44 51.1247C258.182 50.2793 250.77 49.4157 243.218 48.5358L242.601 48.4639L242.932 48.9889C247.752 56.632 252.675 64.4398 257.677 72.3705L257.769 71.9583L256.496 72.7663C248.665 77.7395 240.093 84.7265 232.777 89.3729L231.536 90.161L232.986 89.9171C243.399 88.1635 254.429 84.3625 264.098 82.7345L263.763 82.4615C264.114 90.9973 264.457 99.3147 264.779 107.143L264.802 107.689L265.229 107.347C272.435 101.558 279.38 95.9786 285.984 90.6733L285.657 90.6697C293.44 97.1926 300.801 103.362 307.49 108.969L307.928 109.336L307.865 108.769C306.897 100.037 305.996 91.9164 305.197 84.711L305.018 84.9267C315.715 84.0458 324.985 83.2823 332.446 82.6681L332.833 82.6362L332.513 82.416C326.068 77.9897 321.057 74.549 317.643 72.2049C315.938 71.041 314.635 70.151 313.744 69.5431C312.866 68.9416 312.395 68.6368 312.395 68.6368Z" fill="#263238"/>
<path d="M289.194 57.0606L288.304 71.1192C288.232 72.2686 287.313 73.184 286.163 73.2523C284.95 73.3242 283.894 72.4333 283.76 71.2257L282.199 57.0961C282.081 56.026 282.927 55.095 284.004 55.1096L287.433 55.1578C288.456 55.1715 289.259 56.0396 289.194 57.0606Z" fill="#D76CB7"/>
<path d="M282.437 81.1593C283.034 82.9574 284.976 83.932 286.774 83.3342C288.572 82.7372 289.546 80.7953 288.95 78.9971C288.353 77.199 286.411 76.2253 284.612 76.8222C282.813 77.4192 281.84 79.3611 282.437 81.1593Z" fill="#D76CB7"/>
<path d="M211.617 164.765H286.973L291.277 160.461H337.101C340.196 160.461 342.704 162.97 342.704 166.064V173.641H206.547L206.375 170.281C206.222 167.282 208.613 164.765 211.617 164.765Z" fill="#FF725E"/>
<path d="M105.567 284.589L106.578 184.234C106.637 178.386 111.395 173.675 117.243 173.675H185.375H347.816C353.675 173.675 358.437 178.402 358.481 184.26L359.239 284.588L369.853 328.409V344.07H362.336V388.924C362.336 405.323 349.041 418.618 332.641 418.618H127.668C111.269 418.618 97.9742 405.324 97.9742 388.924V342.191H90.4567V328.41L105.567 284.589Z" fill="#D76CB7"/>
<path d="M105.567 284.589C105.567 284.589 105.253 285.554 104.611 287.444C103.964 289.336 103.003 292.15 101.739 295.851C99.1945 303.262 95.4326 314.223 90.5514 328.443L90.5568 328.411C90.5605 332.721 90.565 337.319 90.5696 342.193L90.4576 342.081C92.7372 342.079 95.3198 342.076 97.9751 342.074H98.0934V342.194C98.1007 351.991 98.1089 362.812 98.1171 374.576C98.1189 377.517 98.1207 380.517 98.1226 383.575C98.1471 386.631 98.0124 389.76 98.4238 392.884C98.7996 396.017 99.7697 399.131 101.236 402.044C102.693 404.962 104.655 407.693 107.061 410.057C111.861 414.803 118.575 417.893 125.725 418.349C127.507 418.477 129.326 418.443 131.152 418.444C132.978 418.443 134.817 418.443 136.668 418.442C140.371 418.44 144.124 418.439 147.925 418.437C163.131 418.432 179.115 418.426 195.796 418.421C229.157 418.413 265.302 418.405 303.577 418.396C313.146 418.394 322.847 418.393 332.671 418.391C337.546 418.348 342.436 417.122 346.78 414.779L348.363 413.817L349.152 413.333L349.895 412.777L351.382 411.665L352.758 410.415L353.447 409.788L354.076 409.101L355.329 407.721L356.453 406.229L357.013 405.481C357.191 405.225 357.341 404.951 357.507 404.686L358.48 403.085C358.774 402.536 359.029 401.963 359.305 401.402C359.901 400.297 360.243 399.083 360.698 397.916C361.399 395.513 361.952 393.036 362.025 390.511C362.114 389.256 362.114 387.983 362.105 386.707C362.105 385.432 362.105 384.157 362.105 382.879C362.105 380.324 362.105 377.761 362.104 375.192C362.104 364.917 362.104 354.541 362.103 344.072V343.835H362.339C364.699 343.835 367.275 343.835 369.857 343.835L369.62 344.072C369.62 339.132 369.62 333.782 369.62 328.411L369.627 328.466C368.549 324.018 367.385 319.214 366.218 314.394C363.75 304.204 361.299 294.087 359.012 284.646L359.006 284.62V284.593C358.763 252.146 358.527 220.552 358.299 190.104C358.115 186.343 358.858 182.34 356.841 179.111C355.021 175.868 351.373 173.86 347.71 173.904C340.246 173.903 332.858 173.901 325.552 173.9C310.938 173.897 296.647 173.895 282.717 173.891C226.996 173.872 177.037 173.855 135.188 173.839C129.957 173.836 124.853 173.834 119.88 173.831C118.641 173.844 117.39 173.794 116.192 173.882C114.988 174.01 113.817 174.341 112.741 174.852C110.577 175.862 108.82 177.625 107.81 179.714C107.305 180.755 106.944 181.867 106.816 183.006C106.689 184.136 106.722 185.297 106.7 186.437C106.676 188.722 106.652 190.972 106.627 193.187C106.58 197.617 106.534 201.905 106.489 206.049C106.307 222.623 106.15 236.877 106.021 248.516C105.886 260.148 105.78 269.166 105.708 275.282C105.667 278.334 105.636 280.66 105.615 282.228C105.591 283.791 105.567 284.589 105.567 284.589C105.567 284.589 105.56 283.785 105.568 282.219C105.579 280.649 105.595 278.321 105.615 275.267C105.667 269.15 105.744 260.13 105.842 248.495C105.949 236.858 106.079 222.608 106.231 206.038C106.27 201.895 106.31 197.607 106.351 193.179C106.372 190.965 106.393 188.716 106.414 186.433C106.435 185.291 106.399 184.143 106.527 182.968C106.658 181.799 107.028 180.655 107.546 179.584C108.58 177.435 110.384 175.622 112.609 174.58C113.715 174.052 114.92 173.711 116.159 173.578C117.409 173.485 118.63 173.536 119.877 173.522C124.85 173.519 129.954 173.516 135.185 173.513C177.034 173.499 226.994 173.482 282.714 173.461C296.645 173.459 310.935 173.456 325.549 173.453C332.856 173.452 340.244 173.451 347.707 173.45C351.519 173.401 355.335 175.498 357.232 178.88C358.21 180.538 358.702 182.479 358.71 184.403C358.725 186.297 358.739 188.196 358.754 190.099C358.986 220.547 359.227 252.14 359.475 284.587L359.469 284.533C361.756 293.975 364.207 304.091 366.675 314.281C367.843 319.102 369.007 323.905 370.084 328.354L370.091 328.381V328.409C370.091 333.78 370.091 339.13 370.091 344.07V344.307H369.854C367.272 344.307 364.697 344.307 362.336 344.307L362.573 344.071C362.572 354.54 362.572 364.916 362.571 375.191C362.571 377.76 362.571 380.322 362.57 382.878C362.57 384.156 362.57 385.432 362.57 386.706C362.578 387.98 362.579 389.253 362.489 390.536C362.413 393.101 361.854 395.617 361.139 398.058C360.678 399.244 360.328 400.477 359.724 401.599C359.443 402.169 359.184 402.751 358.885 403.309L357.898 404.935C357.729 405.204 357.576 405.482 357.396 405.742L356.827 406.502L355.685 408.017L354.411 409.418L353.772 410.115L353.072 410.751L351.673 412.021L350.163 413.15L349.408 413.714L348.606 414.207L346.999 415.183C342.587 417.563 337.619 418.807 332.67 418.848C322.845 418.847 313.144 418.846 303.575 418.845C265.3 418.836 229.155 418.828 195.794 418.82C179.113 418.814 163.129 418.808 147.923 418.804C144.122 418.802 140.369 418.801 136.667 418.799C134.815 418.798 132.976 418.797 131.15 418.797C129.324 418.793 127.513 418.827 125.7 418.695C118.467 418.227 111.678 415.093 106.831 410.29C104.4 407.898 102.42 405.135 100.95 402.185C99.4712 399.238 98.4957 396.09 98.1189 392.924C97.7067 389.755 97.8468 386.626 97.8259 383.575C97.8277 380.517 97.8295 377.517 97.8314 374.576C97.8395 362.812 97.8477 351.991 97.855 342.194L97.9733 342.312C95.3188 342.309 92.7354 342.307 90.4558 342.306H90.3439V342.194C90.3484 337.32 90.353 332.722 90.3566 328.412V328.394L90.3621 328.379C95.2806 314.178 99.0726 303.232 101.637 295.831C102.923 292.135 103.901 289.326 104.559 287.436C105.219 285.548 105.567 284.589 105.567 284.589Z" fill="#263238"/>
<path d="M156.786 267.617C163.992 259.796 163.494 247.614 155.673 240.408C147.853 233.202 135.671 233.701 128.465 241.521C121.259 249.342 121.758 261.524 129.578 268.73C137.399 275.936 149.58 275.437 156.786 267.617Z" fill="#E0E0E0"/>
<path d="M161.885 254.581C161.877 254.581 161.863 254.475 161.845 254.269C161.828 254.039 161.804 253.737 161.775 253.357C161.757 252.955 161.718 252.46 161.603 251.883C161.508 251.303 161.418 250.631 161.194 249.901C160.849 248.419 160.149 246.669 159.05 244.816C157.941 242.969 156.347 241.043 154.178 239.408C152.017 237.789 149.292 236.413 146.147 235.859C143.024 235.325 139.499 235.424 136.144 236.701C135.29 236.975 134.488 237.398 133.662 237.794C132.881 238.267 132.057 238.703 131.33 239.295C130.557 239.826 129.88 240.49 129.172 241.13C128.533 241.839 127.86 242.532 127.309 243.336C126.177 244.908 125.188 246.656 124.591 248.577C123.971 250.486 123.637 252.513 123.61 254.577C123.637 256.642 123.97 258.67 124.59 260.58C125.188 262.502 126.176 264.249 127.308 265.823C127.859 266.627 128.532 267.321 129.172 268.03C129.88 268.669 130.556 269.335 131.329 269.866C132.056 270.458 132.881 270.894 133.662 271.367C134.488 271.763 135.29 272.186 136.144 272.46C139.5 273.737 143.024 273.836 146.148 273.301C149.292 272.747 152.018 271.371 154.179 269.752C156.348 268.118 157.942 266.19 159.05 264.345C160.149 262.491 160.85 260.741 161.194 259.259C161.418 258.529 161.508 257.858 161.603 257.279C161.718 256.702 161.757 256.207 161.775 255.805C161.804 255.423 161.827 255.122 161.845 254.892C161.864 254.686 161.877 254.581 161.885 254.581C161.893 254.581 161.896 254.686 161.893 254.893C161.888 255.125 161.88 255.428 161.871 255.811C161.868 256.216 161.843 256.715 161.742 257.299C161.661 257.884 161.585 258.565 161.372 259.305C161.052 260.808 160.37 262.589 159.277 264.482C158.176 266.366 156.575 268.34 154.382 270.02C152.196 271.684 149.426 273.106 146.219 273.689C143.035 274.252 139.434 274.166 135.995 272.872C135.12 272.593 134.297 272.165 133.451 271.761C132.65 271.28 131.806 270.834 131.059 270.231C130.266 269.689 129.571 269.011 128.846 268.355C128.189 267.632 127.5 266.921 126.933 266.099C125.771 264.49 124.756 262.7 124.142 260.73C123.505 258.773 123.163 256.694 123.135 254.579C123.163 252.465 123.506 250.386 124.143 248.429C124.758 246.461 125.772 244.671 126.934 243.062C127.501 242.239 128.19 241.529 128.847 240.806C129.573 240.152 130.267 239.474 131.06 238.931C131.806 238.328 132.65 237.883 133.451 237.402C134.297 236.998 135.119 236.569 135.994 236.291C139.432 234.997 143.034 234.91 146.218 235.473C149.424 236.056 152.194 237.477 154.379 239.142C156.573 240.822 158.173 242.795 159.275 244.68C160.368 246.573 161.05 248.354 161.37 249.857C161.583 250.598 161.659 251.277 161.74 251.863C161.841 252.446 161.866 252.945 161.869 253.35C161.878 253.734 161.886 254.037 161.891 254.269C161.896 254.474 161.893 254.581 161.885 254.581Z" fill="#263238"/>
<g opacity="0.3">
<path d="M90.4567 328.41H369.855L359.241 284.589H105.567L90.4567 328.41Z" fill="black"/>
</g>
<path d="M339.01 226.534H306.897C304.369 226.534 302.311 224.476 302.311 221.947V189.834C302.311 187.305 304.369 185.248 306.897 185.248H339.01C341.538 185.248 343.596 187.305 343.596 189.834V221.947C343.596 224.476 341.538 226.534 339.01 226.534ZM306.897 186.159C304.87 186.159 303.221 187.808 303.221 189.835V221.948C303.221 223.976 304.871 225.625 306.897 225.625H339.01C341.037 225.625 342.686 223.975 342.686 221.948V189.835C342.686 187.808 341.036 186.159 339.01 186.159H306.897Z" fill="#263238"/>
<path d="M340.812 210.075C343.119 200.213 336.995 190.348 327.133 188.041C317.272 185.734 307.407 191.858 305.1 201.72C302.793 211.581 308.917 221.446 318.778 223.753C328.64 226.06 338.505 219.936 340.812 210.075Z" fill="#263238"/>
<path d="M172.516 217.574H127.273C123.848 217.574 121.073 214.798 121.073 211.374V200.555C121.073 197.131 123.848 194.355 127.273 194.355H172.517C175.941 194.355 178.717 197.131 178.717 200.555V211.374C178.716 214.798 175.94 217.574 172.516 217.574Z" fill="#FAFAFA"/>
<path d="M172.516 217.574C172.512 217.537 173.053 217.579 174.022 217.333C174.969 217.09 176.408 216.44 177.508 214.886C178.055 214.12 178.449 213.116 178.572 211.981C178.627 210.842 178.576 209.561 178.583 208.209C178.577 206.85 178.571 205.399 178.565 203.86C178.562 203.09 178.559 202.298 178.556 201.486C178.556 200.667 178.572 199.849 178.35 199.044C177.941 197.438 176.787 195.925 175.142 195.147C173.511 194.274 171.506 194.611 169.504 194.55C165.484 194.557 161.191 194.564 156.674 194.572C147.635 194.577 137.702 194.583 127.275 194.591C124.738 194.555 122.379 196.313 121.623 198.649C121.203 199.801 121.326 201.06 121.306 202.318C121.305 203.569 121.305 204.809 121.304 206.039C121.303 207.268 121.302 208.486 121.301 209.693C121.313 210.91 121.216 212.096 121.579 213.18C122.248 215.378 124.252 217.004 126.417 217.285C126.951 217.37 127.503 217.354 128.066 217.355C128.624 217.356 129.178 217.357 129.729 217.358C130.83 217.36 131.915 217.362 132.985 217.364C135.126 217.367 137.204 217.372 139.214 217.375C143.23 217.385 146.973 217.395 150.393 217.404C157.21 217.436 162.734 217.462 166.58 217.48C168.472 217.499 169.951 217.515 170.981 217.525C171.466 217.535 171.845 217.543 172.125 217.548C172.384 217.557 172.516 217.566 172.516 217.574C172.516 217.582 172.384 217.59 172.125 217.598C171.846 217.604 171.467 217.612 170.981 217.622C169.95 217.632 168.472 217.647 166.58 217.667C162.733 217.685 157.21 217.71 150.393 217.742C146.973 217.751 143.23 217.76 139.214 217.771C137.204 217.775 135.126 217.779 132.985 217.783C131.915 217.785 130.829 217.787 129.729 217.788C129.178 217.789 128.624 217.79 128.066 217.791C127.516 217.79 126.939 217.81 126.355 217.721C124.03 217.424 121.874 215.685 121.147 213.32C120.975 212.733 120.856 212.123 120.851 211.502C120.848 210.903 120.845 210.301 120.842 209.697C120.842 208.49 120.841 207.272 120.84 206.042C120.839 204.813 120.839 203.572 120.838 202.322C120.84 201.695 120.842 201.066 120.843 200.435C120.847 199.78 120.976 199.128 121.177 198.502C121.99 195.979 124.538 194.082 127.276 194.119C137.703 194.126 147.636 194.132 156.675 194.138C161.192 194.145 165.485 194.152 169.505 194.159C170.509 194.162 171.497 194.164 172.466 194.166C173.462 194.16 174.442 194.399 175.302 194.82C177.043 195.655 178.253 197.263 178.674 198.962C178.904 199.814 178.88 200.686 178.874 201.488C178.871 202.3 178.869 203.092 178.866 203.862C178.859 205.401 178.853 206.852 178.848 208.211C178.827 209.573 178.867 210.822 178.797 212.005C178.656 213.18 178.233 214.213 177.658 214.993C176.501 216.576 175.014 217.209 174.045 217.426C173.054 217.646 172.516 217.574 172.516 217.574Z" fill="#263238"/>
<path d="M236.282 282.522C263.891 282.522 286.273 260.14 286.273 232.531C286.273 204.921 263.891 182.539 236.282 182.539C208.672 182.539 186.29 204.921 186.29 232.531C186.29 260.14 208.672 282.522 236.282 282.522Z" fill="#263238"/>
<path d="M236.281 282.977C208.465 282.977 185.835 260.346 185.835 232.53C185.835 204.714 208.465 182.083 236.281 182.083C264.097 182.083 286.728 204.714 286.728 232.53C286.728 260.346 264.097 282.977 236.281 282.977ZM236.281 182.994C208.966 182.994 186.745 205.216 186.745 232.53C186.745 259.846 208.967 282.068 236.281 282.068C263.596 282.068 285.818 259.846 285.818 232.53C285.818 205.216 263.596 182.994 236.281 182.994Z" fill="#455A64"/>
<path d="M236.281 277.972C210.717 277.972 189.919 257.175 189.919 231.61C189.919 206.047 210.717 185.249 236.281 185.249C261.846 185.249 282.643 206.047 282.643 231.61C282.643 257.175 261.846 277.972 236.281 277.972ZM236.281 186.159C211.218 186.159 190.829 206.548 190.829 231.61C190.829 256.673 211.218 277.062 236.281 277.062C261.344 277.062 281.733 256.673 281.733 231.61C281.733 206.548 261.344 186.159 236.281 186.159Z" fill="#455A64"/>
<path d="M236.282 269.329C256.825 269.329 273.48 252.675 273.48 232.131C273.48 211.587 256.825 194.933 236.282 194.933C215.738 194.933 199.083 211.587 199.083 232.131C199.083 252.675 215.738 269.329 236.282 269.329Z" fill="#455A64"/>
<path d="M153.225 264.303C158.587 258.453 158.191 249.363 152.341 244.001C146.491 238.639 137.402 239.034 132.039 244.885C126.677 250.735 127.073 259.824 132.923 265.186C138.773 270.549 147.863 270.153 153.225 264.303Z" fill="#FF725E"/>
<path d="M156.999 254.581C156.92 254.588 157.016 253.299 156.46 251.094C156.2 249.992 155.675 248.689 154.854 247.311C154.027 245.938 152.837 244.506 151.222 243.292C149.612 242.09 147.584 241.069 145.246 240.66C142.924 240.265 140.304 240.34 137.81 241.29C136.555 241.727 135.345 242.387 134.233 243.219C133.658 243.614 133.157 244.108 132.63 244.584C132.155 245.111 131.655 245.626 131.246 246.224C129.507 248.538 128.527 251.513 128.498 254.578C128.526 257.644 129.506 260.619 131.245 262.934C131.654 263.532 132.154 264.048 132.629 264.575C133.155 265.051 133.657 265.545 134.232 265.94C135.344 266.773 136.555 267.434 137.809 267.87C140.303 268.82 142.924 268.896 145.246 268.501C147.585 268.091 149.612 267.07 151.222 265.867C152.837 264.653 154.026 263.221 154.854 261.849C155.675 260.47 156.2 259.169 156.459 258.065C157.015 255.862 156.92 254.573 156.999 254.581C157.007 254.581 157.011 254.66 157.011 254.814C157.009 254.996 157.005 255.221 157 255.499C157 255.801 156.984 256.174 156.91 256.611C156.852 257.049 156.797 257.557 156.639 258.111C156.403 259.235 155.897 260.568 155.082 261.984C154.261 263.396 153.066 264.874 151.427 266.134C149.792 267.382 147.72 268.448 145.32 268.887C142.936 269.311 140.238 269.248 137.662 268.28C136.366 267.834 135.115 267.159 133.964 266.303C133.37 265.897 132.849 265.39 132.306 264.899C131.813 264.358 131.297 263.825 130.872 263.209C129.071 260.822 128.052 257.746 128.025 254.578C128.053 251.411 129.072 248.335 130.873 245.949C131.298 245.333 131.813 244.802 132.306 244.259C132.85 243.769 133.37 243.262 133.964 242.855C135.114 242 136.365 241.325 137.661 240.879C140.237 239.911 142.934 239.849 145.318 240.272C147.718 240.71 149.791 241.777 151.425 243.025C153.065 244.284 154.26 245.763 155.081 247.174C155.896 248.591 156.403 249.924 156.638 251.049C156.796 251.603 156.851 252.111 156.909 252.549C156.983 252.985 157 253.358 157 253.661C157.004 253.939 157.008 254.164 157.01 254.347C157.01 254.502 157.007 254.581 156.999 254.581Z" fill="#263238"/>
<path d="M148.759 244.183C148.735 244.233 147.921 243.68 146.263 243.167C144.628 242.665 142.026 242.298 139.064 243.225C137.6 243.692 136.087 244.512 134.746 245.722C133.41 246.927 132.227 248.519 131.542 250.431C131.163 251.372 130.974 252.402 130.845 253.45C130.778 254.506 130.776 255.596 130.991 256.679C131.376 258.841 132.409 260.98 134.016 262.673C135.611 264.379 137.676 265.553 139.814 266.064C141.951 266.625 144.149 266.46 146.088 265.913C148.026 265.316 149.697 264.257 150.991 263.003C152.276 261.731 153.172 260.265 153.732 258.836C154.854 255.946 154.637 253.319 154.245 251.659C154.049 250.815 153.809 250.182 153.642 249.757C153.47 249.333 153.369 249.113 153.387 249.104C153.394 249.101 153.428 249.151 153.487 249.254C153.548 249.355 153.628 249.511 153.73 249.719C153.925 250.135 154.198 250.764 154.424 251.614C154.876 253.286 155.158 255.967 154.045 258.956C153.49 260.434 152.583 261.957 151.268 263.282C149.944 264.59 148.223 265.701 146.216 266.331C144.208 266.911 141.928 267.091 139.705 266.515C137.48 265.988 135.331 264.771 133.673 262.998C132.001 261.236 130.929 259.011 130.535 256.761C130.316 255.635 130.32 254.503 130.396 253.408C130.533 252.319 130.736 251.252 131.134 250.277C131.856 248.299 133.094 246.659 134.485 245.428C135.881 244.19 137.452 243.364 138.963 242.904C142.024 241.994 144.675 242.428 146.318 242.99C147.151 243.272 147.764 243.578 148.166 243.802C148.367 243.915 148.517 244.006 148.616 244.073C148.715 244.139 148.764 244.177 148.759 244.183Z" fill="#263238"/>
<path d="M359.241 284.589C359.241 284.72 302.45 284.825 232.41 284.825C162.347 284.825 105.567 284.719 105.567 284.589C105.567 284.459 162.347 284.352 232.41 284.352C302.45 284.351 359.241 284.458 359.241 284.589Z" fill="#263238"/>
<path d="M367.074 344.121C367.074 344.121 366.837 344.137 366.377 344.145C365.901 344.149 365.219 344.157 364.329 344.166C362.515 344.174 359.866 344.185 356.459 344.199C349.609 344.192 339.723 344.181 327.511 344.167C303.067 344.083 269.301 343.773 232.009 343.346C194.704 342.918 160.937 342.555 136.495 342.385C124.283 342.307 114.399 342.246 107.55 342.202C104.143 342.178 101.494 342.159 99.6804 342.147C98.7904 342.135 98.1088 342.127 97.6338 342.121C97.1725 342.113 96.9368 342.095 96.9368 342.095C96.9368 342.095 97.1725 342.08 97.6338 342.072C98.1088 342.067 98.7913 342.06 99.6804 342.051C101.494 342.043 104.143 342.032 107.55 342.017C114.399 342.024 124.284 342.035 136.497 342.049C160.941 342.134 194.711 342.443 232.014 342.871C269.306 343.298 303.07 343.661 327.513 343.832C339.725 343.909 349.61 343.971 356.46 344.015C359.868 344.038 362.517 344.057 364.33 344.069C365.22 344.081 365.902 344.089 366.378 344.096C366.838 344.105 367.074 344.121 367.074 344.121Z" fill="#263238"/>
<path d="M339.152 383.9H121.16V395.692H339.152V383.9Z" fill="#263238"/>
<path d="M125.992 389.796L110.042 433.207H352.43L334.024 389.796H125.992Z" fill="white"/>
<path d="M125.993 389.796C125.993 389.796 126.331 389.785 127.004 389.778C127.687 389.775 128.689 389.769 130.006 389.762C132.663 389.755 136.578 389.743 141.647 389.728C151.814 389.713 166.603 389.69 185.123 389.662C222.212 389.638 274.239 389.604 334.024 389.566H334.177L334.236 389.707C340.154 403.66 346.326 418.211 352.649 433.116L352.788 433.446H352.43C347.126 433.446 341.441 433.446 335.716 433.446C241.708 433.402 158.858 433.364 110.042 433.341H109.852L109.917 433.164C114.986 419.454 118.998 408.602 121.746 401.169C123.12 397.471 124.178 394.625 124.895 392.696C125.252 391.743 125.524 391.018 125.709 390.524C125.894 390.035 125.993 389.796 125.993 389.796C125.993 389.796 125.909 390.055 125.731 390.551C125.551 391.052 125.286 391.786 124.939 392.751C124.235 394.69 123.196 397.551 121.844 401.268C119.132 408.699 115.17 419.547 110.166 433.253L110.042 433.075C158.858 433.053 241.708 433.014 335.716 432.971C341.442 432.971 347.126 432.971 352.43 432.971L352.213 433.299C345.894 418.392 339.727 403.84 333.812 389.885L334.024 390.025C274.289 389.986 222.307 389.952 185.249 389.929C166.711 389.9 151.909 389.878 141.732 389.862C136.646 389.848 132.717 389.837 130.052 389.829C128.725 389.821 127.715 389.816 127.027 389.812C126.346 389.807 125.993 389.796 125.993 389.796Z" fill="#263238"/>
<g opacity="0.3">
<path d="M260.126 249.291C259.67 244.617 255.543 242.963 251.728 242.429C243.614 241.296 234.455 243.621 227.774 238.88C223.487 235.839 221.332 230.077 222.571 224.969C223.518 221.069 226.171 216.796 223.557 213.489C222.56 212.227 220.994 211.55 219.388 211.466C217.807 211.384 216.352 211.745 214.975 212.331C211.991 213.6 209.614 215.992 208.138 218.879C204.665 225.671 204.234 233.651 206.415 241.187C209.064 250.344 216.17 258.07 225.027 261.591C233.884 265.113 244.296 264.394 252.646 259.799C255.8 258.062 258.774 255.693 259.846 252.069C260.111 251.171 260.216 250.222 260.126 249.291Z" fill="white"/>
</g>
<g opacity="0.3">
<path d="M239.669 206.502C239.669 208.605 237.964 210.31 235.861 210.31C233.758 210.31 232.053 208.605 232.053 206.502C232.053 204.399 233.758 202.693 235.861 202.693C237.964 202.693 239.669 204.398 239.669 206.502Z" fill="white"/>
</g>
<path d="M223.142 265.01C223.135 265.025 222.917 264.933 222.509 264.745C222.107 264.543 221.484 264.3 220.744 263.869C219.231 263.072 217.123 261.738 214.781 259.757C212.437 257.783 209.92 255.082 207.71 251.672C205.498 248.273 203.659 244.126 202.674 239.535C201.741 234.931 201.771 230.394 202.44 226.393C203.104 222.383 204.331 218.901 205.692 216.155C207.047 213.403 208.445 211.338 209.515 210.003C210.021 209.313 210.494 208.84 210.782 208.496C211.082 208.16 211.245 207.989 211.256 208C211.268 208.011 211.13 208.203 210.855 208.557C210.591 208.921 210.143 209.411 209.662 210.114C208.644 211.477 207.299 213.555 205.995 216.3C204.685 219.04 203.504 222.495 202.873 226.462C202.235 230.42 202.22 234.897 203.139 239.437C204.11 243.965 205.912 248.062 208.079 251.436C210.243 254.819 212.706 257.515 215.001 259.503C217.293 261.499 219.357 262.865 220.835 263.708C221.558 264.161 222.164 264.43 222.551 264.658C222.944 264.876 223.148 264.996 223.142 265.01Z" fill="white"/>
<path d="M238.576 267.433C238.568 267.564 236.848 267.575 234.732 267.459C232.616 267.343 230.907 267.142 230.914 267.011C230.922 266.88 232.642 266.869 234.758 266.986C236.874 267.101 238.583 267.302 238.576 267.433Z" fill="white"/>
<path d="M270.957 237.183C270.857 237.164 271.283 235.389 271.412 232.473C271.44 231.744 271.465 230.946 271.416 230.09C271.413 229.232 271.303 228.323 271.214 227.363C270.965 225.454 270.547 223.374 269.877 221.254C269.182 219.142 268.305 217.208 267.391 215.513C266.903 214.684 266.461 213.881 265.962 213.183C265.501 212.459 265.015 211.826 264.566 211.251C262.757 208.96 261.375 207.768 261.445 207.695C261.467 207.67 261.814 207.961 262.427 208.511C262.739 208.781 263.109 209.123 263.501 209.558C263.898 209.988 264.378 210.455 264.826 211.041C265.297 211.609 265.805 212.238 266.286 212.962C266.805 213.659 267.267 214.464 267.771 215.301C268.719 217.007 269.622 218.964 270.327 221.108C271.007 223.259 271.419 225.375 271.646 227.313C271.725 228.287 271.821 229.21 271.807 230.079C271.84 230.947 271.795 231.754 271.745 232.49C271.723 233.228 271.607 233.887 271.536 234.468C271.471 235.05 271.371 235.544 271.276 235.945C271.102 236.751 270.989 237.191 270.957 237.183Z" fill="white"/>
<g opacity="0.3">
<path d="M97.9741 342.192V354.63H362.337V344.071L97.9741 342.192Z" fill="black"/>
</g>
<path d="M133.099 389.796L120.648 427.805H341.825L327.407 389.796H133.099Z" fill="#455A64"/>
<path d="M334.995 389.796C334.995 389.927 287.972 390.032 229.982 390.032C171.97 390.032 124.958 389.926 124.958 389.796C124.958 389.665 171.97 389.559 229.982 389.559C287.972 389.558 334.995 389.665 334.995 389.796Z" fill="#263238"/>
<path d="M332.759 200.63L348.884 205.079L336.968 207.993C330.889 208.966 328.168 211.58 327.059 214.967L323.342 244.969L318.77 214.933C317.636 212.105 315.35 209.893 312.485 208.853L297.022 205.079L313.349 200.454C316.072 199.335 318.216 197.143 319.274 194.395L323.341 160.418L326.259 193.653C327.214 196.868 329.619 199.45 332.759 200.63Z" fill="white"/>
<path d="M341.068 241.892L344.822 242.927L342.048 243.605C340.633 243.832 340 244.44 339.741 245.229L338.876 252.213L337.812 245.221C337.548 244.562 337.016 244.048 336.349 243.806L332.75 242.928L336.55 241.852C337.184 241.591 337.683 241.081 337.929 240.441L338.877 232.531L339.556 240.268C339.778 241.015 340.337 241.617 341.068 241.892Z" fill="white"/>
<path d="M285.371 164.871C285.371 164.871 282.111 160.44 280.505 159.599C278.899 158.759 276.689 158.785 275.718 159.656C274.747 160.527 274.747 160.527 274.747 160.527C274.747 160.527 269.686 158.254 267.252 160.002C267.252 160.002 262.437 157.726 260.136 160.331C260.136 160.331 256.425 157.92 254.853 160.025C253.282 162.131 253.447 165.689 254.205 167.521C254.963 169.354 256.387 175.597 257.494 175.707C257.494 175.707 260.452 176.023 260.847 174.423C261.242 172.824 261.41 172.054 261.41 172.054C261.41 172.054 262.54 177.712 263.902 177.991C265.264 178.271 267.862 178.122 267.952 175.639C267.952 175.639 269.215 177.515 270.449 176.969C271.683 176.423 273.209 175.518 273.072 173.984C272.936 172.45 272.917 170.913 272.917 170.913C272.917 170.913 273.594 173.15 274.711 172.664C275.828 172.178 276.951 172.283 277.579 170.385C278.206 168.486 279.763 164.87 279.763 164.87H285.371V164.871Z" fill="#FFBE9D"/>
<path d="M273.009 170.791C273.079 170.753 272.786 170.177 272.526 169.191C272.263 168.212 272.082 166.789 272.363 165.271C272.644 163.753 273.324 162.49 273.92 161.67C274.516 160.842 274.997 160.408 274.945 160.349C274.911 160.305 274.342 160.648 273.647 161.456C272.956 162.253 272.179 163.566 271.881 165.181C271.582 166.797 271.835 168.3 272.195 169.292C272.553 170.296 272.962 170.821 273.009 170.791Z" fill="#EB996E"/>
<path d="M266.938 160.035C266.883 160.02 266.569 160.853 266.29 162.264C266.009 163.671 265.808 165.664 265.952 167.859C266.102 170.053 266.569 172.002 267.036 173.359C267.502 174.718 267.924 175.503 267.977 175.48C268.133 175.43 266.711 172.15 266.443 167.826C266.129 163.505 267.099 160.064 266.938 160.035Z" fill="#EB996E"/>
<path d="M260.017 160.406C259.895 160.389 259.558 163.084 259.945 166.391C260.317 169.7 261.256 172.248 261.371 172.205C261.513 172.163 260.798 169.59 260.433 166.335C260.051 163.082 260.166 160.414 260.017 160.406Z" fill="#EB996E"/>
<path d="M240.105 161.677C240.312 161.15 240.835 160.804 241.379 160.646C242.645 160.277 244.037 160.782 245.049 161.629C246.06 162.474 247.042 163.806 247.73 164.932L240.558 164.887C240.628 163.79 239.703 162.699 240.105 161.677Z" fill="#FFBE9D"/>
<path d="M97.2954 226.323C102.574 227.306 109.248 227.695 109.248 227.695L118.635 234.046L124.587 241.869C123.752 243.576 119.832 242.855 119.832 242.855L114.21 237.876L109.969 236.916L111.77 240.023L120.41 245.957L122.487 247.708C122.487 247.708 128.019 250.844 129.972 252.251C132.109 253.791 132.909 255.078 132.255 255.95C131.479 256.985 129.447 256.832 128.261 256.314L117.731 252.207C117.731 252.207 113.18 254.372 110.837 254.203C108.377 254.026 104.478 253.267 104.478 253.267L101.79 254.886C101.618 255.126 101.26 255.289 100.821 255.398C99.0299 255.845 97.1343 255.309 95.7211 254.121L89.2692 248.698C87.8514 247.505 85.3362 243.937 83.1367 240.604C80.424 236.492 79.7606 231.358 81.3622 226.699C82.7036 223.078 85.5691 220.231 89.1991 218.912L106.251 195.78L106.139 227.46" fill="#FFBE9D"/>
<path d="M107.753 248.142C107.679 248.248 109.692 249.688 112.507 250.827C115.317 251.979 117.763 252.355 117.784 252.227C117.818 252.078 115.459 251.487 112.699 250.355C109.934 249.237 107.832 248.012 107.753 248.142Z" fill="#EB996E"/>
<path d="M101.492 252.076C101.412 252.228 102.655 252.854 104.264 253.265C105.87 253.694 107.204 253.88 107.235 253.747C107.269 253.606 105.988 253.198 104.397 252.773C102.798 252.363 101.548 251.979 101.492 252.076Z" fill="#EB996E"/>
<path d="M124.807 248.999C124.845 248.933 123.836 248.298 122.245 247.217C120.651 246.14 118.475 244.614 116.126 242.854C114.95 241.974 113.843 241.119 112.845 240.333C111.85 239.553 111.024 238.778 110.515 237.99C109.459 236.391 109.757 235.095 109.671 235.114C109.645 235.107 109.528 235.398 109.53 235.955C109.533 236.506 109.7 237.323 110.209 238.182C110.711 239.046 111.559 239.89 112.55 240.699C113.538 241.511 114.64 242.379 115.821 243.263C118.18 245.031 120.399 246.518 122.051 247.522C123.699 248.528 124.776 249.055 124.807 248.999Z" fill="#EB996E"/>
<path d="M110.721 236.942C110.707 237.025 111.483 237.151 112.638 237.613C113.787 238.067 115.313 238.924 116.594 240.308C117.222 240.992 117.79 241.778 118.499 242.289C119.201 242.845 120.014 243.045 120.652 243.102C121.952 243.201 122.724 242.978 122.716 242.929C122.713 242.839 121.918 242.929 120.701 242.744C120.097 242.642 119.396 242.431 118.791 241.921C118.148 241.428 117.639 240.696 116.968 239.961C115.618 238.502 113.981 237.653 112.761 237.272C111.531 236.885 110.725 236.887 110.721 236.942Z" fill="#EB996E"/>
<path d="M108.271 227.642C108.265 227.492 104.031 227.241 98.9425 226.386C93.8556 225.569 89.8589 224.465 89.7879 224.67C89.7178 224.678 90.6752 225.041 92.2786 225.478C93.8856 225.92 96.1752 226.453 98.7705 226.879C103.978 227.751 108.298 227.776 108.271 227.642Z" fill="#EB996E"/>
</svg>
