<svg width="530" height="323" viewBox="0 0 530 323" fill="none" xmlns="http://www.w3.org/2000/svg">
<path fill-rule="evenodd" clip-rule="evenodd" d="M49.1202 57.5102C24.5521 60.9962 8.02557 84.4958 13.0528 108.795L40.995 243.857C45.3406 264.862 64.5019 279.452 85.9062 278.054L96.0457 277.392L121.131 316.627L133.872 274.921L428.13 255.7C449.468 254.306 466.54 237.445 468.198 216.126L481.196 49.0507C483.329 21.6257 459.519 -0.722466 432.284 3.14198L49.1202 57.5102Z" fill="#BED1DC"/>
<path fill-rule="evenodd" clip-rule="evenodd" d="M71.4576 44.4683C46.7145 46.3456 28.6914 68.7179 32.124 93.2935L51.2032 229.889C54.1704 251.133 72.3398 266.941 93.7898 266.941H103.951L126.425 307.728L141.858 266.941H436.743C458.127 266.941 476.261 251.229 479.305 230.063L503.166 64.1904C507.082 36.9629 484.78 13.1103 457.351 15.1912L71.4576 44.4683Z" fill="#EBEBEB"/>
<path d="M0 86.9467V67.9529C0 60.9182 1.16357 54.3524 3.49072 48.2556C5.973 42.1588 10.1619 36.1402 16.0573 30.1998L26.5294 38.407C21.8752 43.0968 18.6947 47.474 16.9882 51.5385C15.4367 55.603 14.661 59.8239 14.661 64.201L8.145 59.0422H27.693V86.9467H0ZM42.354 86.9467V67.9529C42.354 60.9182 43.5176 54.3524 45.8447 48.2556C48.327 42.1588 52.5159 36.1402 58.4113 30.1998L68.8835 38.407C64.2292 43.0968 61.0487 47.474 59.3422 51.5385C57.7907 55.603 57.015 59.8239 57.015 64.201L50.499 59.0422H70.047V86.9467H42.354Z" fill="#D76CB7"/>
<path d="M529.343 238.568L529.343 254C529.343 259.716 528.4 265.05 526.515 270.004C524.504 274.958 521.11 279.848 516.334 284.674L507.851 278.006C511.621 274.196 514.198 270.639 515.58 267.337C516.837 264.034 517.466 260.605 517.466 257.048L522.744 261.24L506.908 261.24L506.908 238.568L529.343 238.568ZM495.031 238.568L495.031 254C495.031 259.716 494.088 265.05 492.203 270.004C490.192 274.958 486.798 279.848 482.022 284.674L473.538 278.006C477.309 274.196 479.886 270.639 481.268 267.337C482.525 264.034 483.153 260.605 483.153 257.048L488.432 261.24L472.596 261.24L472.596 238.567L495.031 238.568Z" fill="#D76CB7"/>
<path d="M78.1345 219.926L80.8097 198.238H83.6405L80.9653 219.926H78.1345ZM66.5004 214.659V211.84H86.1602V214.659H66.5004ZM70.0466 219.926L72.7529 198.238H75.5837L72.8774 219.926H70.0466ZM67.558 206.325V203.505H87.1556L87.1867 206.325H67.558Z" fill="#455A64" fill-opacity="0.53"/>
<path d="M102.427 219.926L96.4237 211.995L99.5966 210.043L107 219.926H102.427ZM90.5133 219.926V203.381H94.4017V219.926H90.5133ZM93.2507 213.296V210.074H98.8812V213.296H93.2507ZM99.9699 212.119L96.3304 211.685L102.427 203.381H106.596L99.9699 212.119Z" fill="#455A64" fill-opacity="0.53"/>
<path d="M116.599 220.143C114.899 220.143 113.385 219.782 112.058 219.059C110.731 218.315 109.683 217.303 108.916 216.023C108.149 214.742 107.765 213.286 107.765 211.654C107.765 210.001 108.149 208.545 108.916 207.285C109.683 206.005 110.731 205.003 112.058 204.28C113.385 203.557 114.899 203.195 116.599 203.195C118.321 203.195 119.845 203.557 121.172 204.28C122.52 205.003 123.568 205.994 124.314 207.254C125.081 208.514 125.465 209.981 125.465 211.654C125.465 213.286 125.081 214.742 124.314 216.023C123.568 217.303 122.52 218.315 121.172 219.059C119.845 219.782 118.321 220.143 116.599 220.143ZM116.599 216.828C117.553 216.828 118.404 216.622 119.15 216.208C119.897 215.795 120.478 215.196 120.892 214.411C121.328 213.627 121.546 212.707 121.546 211.654C121.546 210.58 121.328 209.661 120.892 208.896C120.478 208.111 119.897 207.512 119.15 207.099C118.404 206.686 117.564 206.48 116.631 206.48C115.677 206.48 114.826 206.686 114.08 207.099C113.354 207.512 112.773 208.111 112.338 208.896C111.902 209.661 111.684 210.58 111.684 211.654C111.684 212.707 111.902 213.627 112.338 214.411C112.773 215.196 113.354 215.795 114.08 216.208C114.826 216.622 115.666 216.828 116.599 216.828Z" fill="#455A64" fill-opacity="0.53"/>
<path d="M129.306 219.926V203.381H133.195V210.105H141.563V203.381H145.451V219.926H141.563V213.389H133.195V219.926H129.306Z" fill="#455A64" fill-opacity="0.53"/>
<path d="M162.576 219.926L156.573 211.995L159.746 210.043L167.149 219.926H162.576ZM150.662 219.926V203.381H154.551V219.926H150.662ZM153.4 213.296V210.074H159.03V213.296H153.4ZM160.119 212.119L156.479 211.685L162.576 203.381H166.745L160.119 212.119Z" fill="#455A64" fill-opacity="0.53"/>
<path d="M170.443 226.154C169.634 226.154 168.826 226.02 168.017 225.751C167.208 225.483 166.534 225.111 165.995 224.636L167.55 221.785C167.944 222.137 168.39 222.415 168.888 222.622C169.385 222.829 169.894 222.932 170.412 222.932C171.117 222.932 171.687 222.756 172.123 222.405C172.558 222.054 172.963 221.465 173.336 220.639L174.3 218.47L174.611 218.005L180.895 203.381H184.628L176.851 221.259C176.333 222.498 175.752 223.479 175.109 224.202C174.487 224.925 173.782 225.431 172.994 225.72C172.227 226.01 171.376 226.154 170.443 226.154ZM173.865 220.515L166.368 203.381H170.412L176.509 217.665L173.865 220.515Z" fill="#455A64" fill-opacity="0.53"/>
<path d="M196.537 220.143C195.189 220.143 193.955 219.834 192.835 219.214C191.736 218.594 190.854 217.665 190.191 216.425C189.548 215.165 189.226 213.575 189.226 211.654C189.226 209.712 189.537 208.122 190.16 206.882C190.802 205.643 191.673 204.724 192.773 204.125C193.872 203.505 195.126 203.195 196.537 203.195C198.175 203.195 199.616 203.547 200.86 204.249C202.126 204.951 203.121 205.932 203.847 207.192C204.593 208.452 204.967 209.939 204.967 211.654C204.967 213.368 204.593 214.866 203.847 216.146C203.121 217.406 202.126 218.388 200.86 219.09C199.616 219.792 198.175 220.143 196.537 220.143ZM187.329 225.937V203.381H191.031V207.285L190.906 211.685L191.217 216.085V225.937H187.329ZM196.101 216.828C197.034 216.828 197.864 216.622 198.59 216.208C199.336 215.795 199.927 215.196 200.363 214.411C200.798 213.627 201.016 212.707 201.016 211.654C201.016 210.58 200.798 209.661 200.363 208.896C199.927 208.111 199.336 207.512 198.59 207.099C197.864 206.686 197.034 206.48 196.101 206.48C195.168 206.48 194.328 206.686 193.581 207.099C192.835 207.512 192.244 208.111 191.808 208.896C191.373 209.661 191.155 210.58 191.155 211.654C191.155 212.707 191.373 213.627 191.808 214.411C192.244 215.196 192.835 215.795 193.581 216.208C194.328 216.622 195.168 216.828 196.101 216.828Z" fill="#455A64" fill-opacity="0.53"/>
<path d="M216.396 220.143C214.654 220.143 213.098 219.782 211.73 219.059C210.382 218.315 209.324 217.303 208.557 216.023C207.789 214.742 207.406 213.286 207.406 211.654C207.406 210.001 207.789 208.545 208.557 207.285C209.324 206.005 210.382 205.003 211.73 204.28C213.098 203.557 214.654 203.195 216.396 203.195C218.013 203.195 219.434 203.526 220.657 204.187C221.902 204.827 222.845 205.777 223.488 207.037L220.502 208.772C220.004 207.988 219.392 207.409 218.667 207.037C217.961 206.666 217.194 206.48 216.365 206.48C215.411 206.48 214.55 206.686 213.783 207.099C213.015 207.512 212.414 208.111 211.978 208.896C211.543 209.661 211.325 210.58 211.325 211.654C211.325 212.728 211.543 213.657 211.978 214.442C212.414 215.207 213.015 215.795 213.783 216.208C214.55 216.622 215.411 216.828 216.365 216.828C217.194 216.828 217.961 216.642 218.667 216.27C219.392 215.899 220.004 215.32 220.502 214.535L223.488 216.27C222.845 217.51 221.902 218.47 220.657 219.152C219.434 219.813 218.013 220.143 216.396 220.143Z" fill="#455A64" fill-opacity="0.53"/>
<path d="M233.662 219.926L224.143 198.238H228.529L237.022 217.851H234.502L243.087 198.238H247.131L237.644 219.926H233.662Z" fill="#455A64" fill-opacity="0.53"/>
<path d="M249.208 219.926V203.381H253.096V219.926H249.208ZM251.168 200.655C250.442 200.655 249.84 200.428 249.363 199.973C248.907 199.519 248.679 198.971 248.679 198.331C248.679 197.67 248.907 197.123 249.363 196.689C249.84 196.235 250.442 196.007 251.168 196.007C251.893 196.007 252.484 196.224 252.941 196.658C253.418 197.071 253.656 197.598 253.656 198.238C253.656 198.92 253.428 199.498 252.972 199.973C252.516 200.428 251.914 200.655 251.168 200.655Z" fill="#455A64" fill-opacity="0.53"/>
<path d="M265.23 220.143C263.633 220.143 262.192 219.792 260.906 219.09C259.641 218.367 258.646 217.375 257.92 216.116C257.194 214.856 256.831 213.368 256.831 211.654C256.831 209.939 257.194 208.452 257.92 207.192C258.646 205.932 259.641 204.951 260.906 204.249C262.192 203.547 263.633 203.195 265.23 203.195C266.62 203.195 267.864 203.505 268.963 204.125C270.062 204.724 270.933 205.643 271.576 206.882C272.219 208.122 272.54 209.712 272.54 211.654C272.54 213.575 272.229 215.165 271.607 216.425C270.985 217.665 270.124 218.594 269.025 219.214C267.926 219.834 266.661 220.143 265.23 220.143ZM265.697 216.828C266.63 216.828 267.459 216.622 268.185 216.208C268.932 215.795 269.523 215.196 269.958 214.411C270.415 213.627 270.643 212.707 270.643 211.654C270.643 210.58 270.415 209.661 269.958 208.896C269.523 208.111 268.932 207.512 268.185 207.099C267.459 206.686 266.63 206.48 265.697 206.48C264.763 206.48 263.924 206.686 263.177 207.099C262.451 207.512 261.86 208.111 261.404 208.896C260.968 209.661 260.751 210.58 260.751 211.654C260.751 212.707 260.968 213.627 261.404 214.411C261.86 215.196 262.451 215.795 263.177 216.208C263.924 216.622 264.763 216.828 265.697 216.828ZM270.736 219.926V216.023L270.892 211.623L270.581 207.223V196.937H274.438V219.926H270.736Z" fill="#455A64" fill-opacity="0.53"/>
<path d="M287.364 220.143C285.518 220.143 283.9 219.782 282.511 219.059C281.142 218.315 280.074 217.303 279.307 216.023C278.56 214.742 278.187 213.286 278.187 211.654C278.187 210.001 278.55 208.545 279.276 207.285C280.022 206.005 281.038 205.003 282.324 204.28C283.631 203.557 285.114 203.195 286.773 203.195C288.39 203.195 289.831 203.547 291.097 204.249C292.362 204.951 293.357 205.943 294.083 207.223C294.809 208.504 295.172 210.012 295.172 211.747C295.172 211.912 295.161 212.098 295.14 212.305C295.14 212.511 295.13 212.707 295.109 212.893H281.267V210.322H293.056L291.532 211.127C291.553 210.177 291.356 209.34 290.941 208.618C290.526 207.895 289.956 207.327 289.23 206.913C288.525 206.5 287.706 206.294 286.773 206.294C285.819 206.294 284.979 206.5 284.253 206.913C283.548 207.327 282.988 207.905 282.573 208.649C282.179 209.371 281.982 210.229 281.982 211.22V211.84C281.982 212.831 282.21 213.709 282.666 214.473C283.123 215.238 283.766 215.826 284.595 216.239C285.425 216.653 286.379 216.859 287.457 216.859C288.39 216.859 289.23 216.715 289.977 216.425C290.723 216.136 291.387 215.682 291.968 215.062L294.052 217.448C293.305 218.315 292.362 218.987 291.221 219.462C290.101 219.916 288.815 220.143 287.364 220.143Z" fill="#455A64" fill-opacity="0.53"/>
<path d="M306.372 220.143C304.672 220.143 303.158 219.782 301.831 219.059C300.503 218.315 299.456 217.303 298.689 216.023C297.922 214.742 297.538 213.286 297.538 211.654C297.538 210.001 297.922 208.545 298.689 207.285C299.456 206.005 300.503 205.003 301.831 204.28C303.158 203.557 304.672 203.195 306.372 203.195C308.094 203.195 309.618 203.557 310.945 204.28C312.293 205.003 313.34 205.994 314.087 207.254C314.854 208.514 315.238 209.981 315.238 211.654C315.238 213.286 314.854 214.742 314.087 216.023C313.34 217.303 312.293 218.315 310.945 219.059C309.618 219.782 308.094 220.143 306.372 220.143ZM306.372 216.828C307.326 216.828 308.177 216.622 308.923 216.208C309.67 215.795 310.25 215.196 310.665 214.411C311.101 213.627 311.318 212.707 311.318 211.654C311.318 210.58 311.101 209.661 310.665 208.896C310.25 208.111 309.67 207.512 308.923 207.099C308.177 206.686 307.337 206.48 306.404 206.48C305.45 206.48 304.599 206.686 303.853 207.099C303.127 207.512 302.546 208.111 302.111 208.896C301.675 209.661 301.457 210.58 301.457 211.654C301.457 212.707 301.675 213.627 302.111 214.411C302.546 215.196 303.127 215.795 303.853 216.208C304.599 216.622 305.439 216.828 306.372 216.828Z" fill="#455A64" fill-opacity="0.53"/>
<path d="M318.42 212.924V209.702H326.975V212.924H318.42Z" fill="#455A64" fill-opacity="0.53"/>
<path d="M336.362 220.143C334.972 220.143 333.635 219.968 332.349 219.617C331.084 219.245 330.078 218.801 329.332 218.284L330.825 215.341C331.571 215.816 332.463 216.208 333.5 216.518C334.537 216.828 335.574 216.983 336.611 216.983C337.834 216.983 338.716 216.818 339.255 216.487C339.815 216.157 340.095 215.713 340.095 215.155C340.095 214.701 339.908 214.36 339.535 214.133C339.161 213.885 338.674 213.699 338.073 213.575C337.471 213.451 336.797 213.337 336.051 213.234C335.325 213.131 334.589 212.997 333.842 212.831C333.116 212.645 332.453 212.387 331.851 212.057C331.25 211.706 330.763 211.241 330.389 210.662C330.016 210.084 329.829 209.32 329.829 208.37C329.829 207.316 330.13 206.407 330.731 205.643C331.333 204.858 332.173 204.259 333.251 203.846C334.35 203.412 335.646 203.195 337.139 203.195C338.259 203.195 339.39 203.319 340.53 203.567C341.671 203.815 342.614 204.166 343.361 204.621L341.868 207.564C341.08 207.089 340.281 206.769 339.473 206.604C338.685 206.418 337.896 206.325 337.108 206.325C335.926 206.325 335.045 206.5 334.464 206.851C333.904 207.203 333.624 207.647 333.624 208.184C333.624 208.679 333.811 209.051 334.184 209.299C334.558 209.547 335.045 209.743 335.646 209.888C336.248 210.032 336.911 210.156 337.637 210.26C338.384 210.342 339.12 210.477 339.846 210.662C340.572 210.848 341.235 211.107 341.837 211.437C342.459 211.747 342.957 212.191 343.33 212.769C343.703 213.348 343.89 214.102 343.89 215.031C343.89 216.064 343.579 216.962 342.957 217.727C342.355 218.491 341.495 219.09 340.375 219.524C339.255 219.937 337.917 220.143 336.362 220.143Z" fill="#455A64" fill-opacity="0.53"/>
<path d="M356.664 203.195C357.991 203.195 359.173 203.454 360.21 203.97C361.268 204.486 362.097 205.282 362.699 206.356C363.3 207.409 363.601 208.772 363.601 210.446V219.926H359.713V210.941C359.713 209.475 359.36 208.38 358.655 207.657C357.97 206.934 357.006 206.573 355.762 206.573C354.849 206.573 354.041 206.759 353.336 207.13C352.63 207.502 352.081 208.06 351.687 208.803C351.314 209.526 351.127 210.446 351.127 211.561V219.926H347.238V196.937H351.127V207.843L350.287 206.48C350.868 205.426 351.708 204.621 352.807 204.063C353.927 203.485 355.212 203.195 356.664 203.195Z" fill="#455A64" fill-opacity="0.53"/>
<path d="M376.03 220.143C374.329 220.143 372.815 219.782 371.488 219.059C370.161 218.315 369.114 217.303 368.346 216.023C367.579 214.742 367.195 213.286 367.195 211.654C367.195 210.001 367.579 208.545 368.346 207.285C369.114 206.005 370.161 205.003 371.488 204.28C372.815 203.557 374.329 203.195 376.03 203.195C377.751 203.195 379.275 203.557 380.603 204.28C381.951 205.003 382.998 205.994 383.744 207.254C384.512 208.514 384.895 209.981 384.895 211.654C384.895 213.286 384.512 214.742 383.744 216.023C382.998 217.303 381.951 218.315 380.603 219.059C379.275 219.782 377.751 220.143 376.03 220.143ZM376.03 216.828C376.984 216.828 377.834 216.622 378.581 216.208C379.327 215.795 379.908 215.196 380.323 214.411C380.758 213.627 380.976 212.707 380.976 211.654C380.976 210.58 380.758 209.661 380.323 208.896C379.908 208.111 379.327 207.512 378.581 207.099C377.834 206.686 376.994 206.48 376.061 206.48C375.107 206.48 374.257 206.686 373.51 207.099C372.784 207.512 372.204 208.111 371.768 208.896C371.333 209.661 371.115 210.58 371.115 211.654C371.115 212.707 371.333 213.627 371.768 214.411C372.204 215.196 372.784 215.795 373.51 216.208C374.257 216.622 375.097 216.828 376.03 216.828Z" fill="#455A64" fill-opacity="0.53"/>
<path d="M397.821 220.143C396.473 220.143 395.24 219.834 394.12 219.214C393.021 218.594 392.139 217.665 391.476 216.425C390.833 215.165 390.511 213.575 390.511 211.654C390.511 209.712 390.822 208.122 391.444 206.882C392.087 205.643 392.958 204.724 394.057 204.125C395.157 203.505 396.411 203.195 397.821 203.195C399.46 203.195 400.901 203.547 402.145 204.249C403.41 204.951 404.406 205.932 405.132 207.192C405.878 208.452 406.252 209.939 406.252 211.654C406.252 213.368 405.878 214.866 405.132 216.146C404.406 217.406 403.41 218.388 402.145 219.09C400.901 219.792 399.46 220.143 397.821 220.143ZM388.614 225.937V203.381H392.315V207.285L392.191 211.685L392.502 216.085V225.937H388.614ZM397.386 216.828C398.319 216.828 399.149 216.622 399.875 216.208C400.621 215.795 401.212 215.196 401.648 214.411C402.083 213.627 402.301 212.707 402.301 211.654C402.301 210.58 402.083 209.661 401.648 208.896C401.212 208.111 400.621 207.512 399.875 207.099C399.149 206.686 398.319 206.48 397.386 206.48C396.453 206.48 395.613 206.686 394.866 207.099C394.12 207.512 393.529 208.111 393.093 208.896C392.658 209.661 392.44 210.58 392.44 211.654C392.44 212.707 392.658 213.627 393.093 214.411C393.529 215.196 394.12 215.795 394.866 216.208C395.613 216.622 396.453 216.828 397.386 216.828Z" fill="#455A64" fill-opacity="0.53"/>
<path d="M417.747 220.143C415.901 220.143 414.284 219.782 412.894 219.059C411.526 218.315 410.458 217.303 409.69 216.023C408.944 214.742 408.57 213.286 408.57 211.654C408.57 210.001 408.933 208.545 409.659 207.285C410.406 206.005 411.422 205.003 412.708 204.28C414.014 203.557 415.497 203.195 417.156 203.195C418.774 203.195 420.215 203.547 421.48 204.249C422.745 204.951 423.74 205.943 424.466 207.223C425.192 208.504 425.555 210.012 425.555 211.747C425.555 211.912 425.545 212.098 425.524 212.305C425.524 212.511 425.514 212.707 425.493 212.893H411.65V210.322H423.44L421.916 211.127C421.936 210.177 421.739 209.34 421.324 208.618C420.91 207.895 420.339 207.327 419.614 206.913C418.908 206.5 418.089 206.294 417.156 206.294C416.202 206.294 415.362 206.5 414.636 206.913C413.931 207.327 413.371 207.905 412.957 208.649C412.563 209.371 412.366 210.229 412.366 211.22V211.84C412.366 212.831 412.594 213.709 413.05 214.473C413.506 215.238 414.149 215.826 414.979 216.239C415.808 216.653 416.762 216.859 417.84 216.859C418.774 216.859 419.614 216.715 420.36 216.425C421.107 216.136 421.77 215.682 422.351 215.062L424.435 217.448C423.689 218.315 422.745 218.987 421.604 219.462C420.485 219.916 419.199 220.143 417.747 220.143Z" fill="#455A64" fill-opacity="0.53"/>
<path d="M429.29 219.926V203.381H432.992V207.936L432.556 206.604C433.054 205.488 433.832 204.641 434.889 204.063C435.968 203.485 437.305 203.195 438.902 203.195V206.882C438.736 206.841 438.581 206.82 438.436 206.82C438.291 206.8 438.145 206.79 438 206.79C436.528 206.79 435.356 207.223 434.485 208.091C433.614 208.938 433.179 210.208 433.179 211.902V219.926H429.29Z" fill="#455A64" fill-opacity="0.53"/>
<rect x="92.2139" y="175.614" width="311.222" height="2.66001" rx="1.33001" fill="#455A64"/>
<rect x="92.2139" y="161.427" width="244.721" height="2.66001" rx="1.33001" fill="#455A64"/>
<rect x="92.2139" y="147.24" width="328.068" height="2.66001" rx="1.33001" fill="#455A64"/>
<rect x="92.2139" y="133.054" width="296.148" height="2.66001" rx="1.33001" fill="#455A64"/>
<rect x="92.2139" y="118.867" width="328.068" height="2.66001" rx="1.33001" fill="#455A64"/>
<rect x="92.2139" y="104.68" width="328.068" height="2.66001" rx="1.33001" fill="#455A64"/>
<rect x="92.2139" y="70.9866" width="328.068" height="9.75338" rx="4.87669" fill="#455A64"/>
</svg>
