<svg width="624" height="416" viewBox="0 0 624 416" fill="none" xmlns="http://www.w3.org/2000/svg">
<path d="M538.182 98.8108C536.33 96.5128 534.402 94.2581 532.39 92.0533C505.583 62.717 460.957 42.6325 417.586 33.5363C398.585 29.5452 379.078 27.4577 359.604 26.9244C231.874 23.4674 184.95 101.908 143.797 122.132C102.643 142.357 39.4908 176.902 47.4156 249.469C53.4285 304.644 95.5709 357.401 172.538 381.409C181.016 384.061 189.924 386.363 199.25 388.274C216.599 391.829 235.402 394.06 255.662 394.732C313.853 396.663 361.102 386.215 407.32 359.907C418.063 353.791 428.749 346.893 442.691 346.138C452.824 345.589 462.432 348.3 451.84 355.594C439.39 364.168 453.755 381.03 485.359 369.315C538.142 349.749 559.854 307.534 570.084 264.608C582.638 211.917 576.552 146.392 538.182 98.8108Z" fill="#EBEBEB"/>
<path d="M319.487 191.62C365.076 191.62 402.033 154.662 402.033 109.074C402.033 63.4846 365.076 26.5275 319.487 26.5275C273.898 26.5275 236.941 63.4846 236.941 109.074C236.941 154.662 273.898 191.62 319.487 191.62Z" fill="#AFFDA0" stroke="#263238" stroke-miterlimit="10"/>
<path d="M319.487 185.251C361.559 185.251 395.664 151.145 395.664 109.074C395.664 67.0021 361.559 32.8965 319.487 32.8965C277.416 32.8965 243.31 67.0021 243.31 109.074C243.31 151.145 277.416 185.251 319.487 185.251Z" fill="#AFFDA0" stroke="#263238" stroke-miterlimit="10"/>
<path d="M317.861 107.438L290.482 107.368L284.176 109.267L290.473 111.093L317.852 111.163C318.88 111.165 319.716 110.334 319.719 109.305C319.721 108.276 318.89 107.44 317.861 107.438Z" fill="#D76CB7" stroke="#263238" stroke-miterlimit="10"/>
<path d="M321.363 107.552L321.556 80.1732L319.684 73.8583L317.831 80.1474L317.638 107.526C317.63 108.554 318.458 109.394 319.487 109.401C320.516 109.408 321.355 108.58 321.363 107.552Z" fill="#D76CB7" stroke="#263238" stroke-miterlimit="10"/>
<path d="M319.332 198.665C270.075 198.665 230 158.59 230 109.332C230 60.0741 270.075 20 319.332 20C368.591 20 408.665 60.0741 408.665 109.332C408.666 158.59 368.591 198.665 319.332 198.665ZM319.332 29.8301C275.494 29.8301 239.83 65.4946 239.83 109.332C239.83 153.17 275.494 188.834 319.332 188.834C363.17 188.834 398.835 153.169 398.835 109.332C398.835 65.4946 363.17 29.8301 319.332 29.8301Z" fill="#263238"/>
<path d="M319.487 112.28C321.258 112.28 322.694 110.844 322.694 109.074C322.694 107.303 321.258 105.867 319.487 105.867C317.716 105.867 316.281 107.303 316.281 109.074C316.281 110.844 317.716 112.28 319.487 112.28Z" fill="white" stroke="#263238" stroke-miterlimit="10"/>
<path d="M319.619 37.5082V49.3717" stroke="#263238" stroke-width="2" stroke-miterlimit="10" stroke-linecap="round" stroke-linejoin="round"/>
<path d="M319.619 169.981V181.844" stroke="#263238" stroke-width="2" stroke-miterlimit="10" stroke-linecap="round" stroke-linejoin="round"/>
<path d="M370.649 58.646L362.261 67.0343" stroke="#263238" stroke-width="2" stroke-miterlimit="10" stroke-linecap="round" stroke-linejoin="round"/>
<path d="M276.978 152.318L268.589 160.707" stroke="#263238" stroke-width="2" stroke-miterlimit="10" stroke-linecap="round" stroke-linejoin="round"/>
<path d="M268.589 58.646L276.978 67.0343" stroke="#263238" stroke-width="2" stroke-miterlimit="10" stroke-linecap="round" stroke-linejoin="round"/>
<path d="M362.261 152.318L370.649 160.707" stroke="#263238" stroke-width="2" stroke-miterlimit="10" stroke-linecap="round" stroke-linejoin="round"/>
<path d="M391.787 109.676H379.924" stroke="#263238" stroke-width="2" stroke-miterlimit="10" stroke-linecap="round" stroke-linejoin="round"/>
<path d="M259.314 109.676H247.451" stroke="#263238" stroke-width="2" stroke-miterlimit="10" stroke-linecap="round" stroke-linejoin="round"/>
<path d="M555.957 395.342L550.623 360.072C550.623 360.072 549.522 349.343 545.395 341.914C541.269 334.486 541.269 328.709 538.517 324.308C535.766 319.906 517.334 309.727 512.381 306.7C507.429 303.674 507.705 296.521 505.503 294.045C503.303 291.569 501.101 289.092 501.927 283.59C502.752 278.088 499.726 276.162 498.901 273.136C498.075 270.11 501.377 260.206 503.577 256.08C505.778 251.953 503.577 247.826 503.577 247.826C503.577 247.826 498.901 235.996 499.726 229.119C500.551 222.24 503.577 213.987 507.429 211.236C511.281 208.485 517.334 204.634 517.883 207.935C518.433 211.236 519.81 213.988 516.783 217.839C513.757 221.691 513.481 221.141 513.206 225.267C512.931 229.394 514.857 236.272 514.857 236.272C514.857 236.272 518.983 243.7 529.987 248.377C540.992 253.054 559.149 245.625 559.974 240.949C560.8 236.272 561.625 215.363 562.45 210.137C563.276 204.909 569.878 202.708 572.079 210.686C574.28 218.665 575.105 229.119 573.73 234.897C572.355 240.674 569.879 250.578 571.254 256.356C572.629 262.133 575.656 272.863 573.73 282.216C571.804 291.57 571.529 300.098 571.529 300.098C571.529 300.098 580.745 327.399 583.221 338.403C585.697 349.408 592.845 366.472 600.865 385.718" fill="white"/>
<path d="M555.957 395.342L550.623 360.072C550.623 360.072 549.522 349.343 545.395 341.914C541.269 334.486 541.269 328.709 538.517 324.308C535.766 319.906 517.334 309.727 512.381 306.7C507.429 303.674 507.705 296.521 505.503 294.045C503.303 291.569 501.101 289.092 501.927 283.59C502.752 278.088 499.726 276.162 498.901 273.136C498.075 270.11 501.377 260.206 503.577 256.08C505.778 251.953 503.577 247.826 503.577 247.826C503.577 247.826 498.901 235.996 499.726 229.119C500.551 222.24 503.577 213.987 507.429 211.236C511.281 208.485 517.334 204.634 517.883 207.935C518.433 211.236 519.81 213.988 516.783 217.839C513.757 221.691 513.481 221.141 513.206 225.267C512.931 229.394 514.857 236.272 514.857 236.272C514.857 236.272 518.983 243.7 529.987 248.377C540.992 253.054 559.149 245.625 559.974 240.949C560.8 236.272 561.625 215.363 562.45 210.137C563.276 204.909 569.878 202.708 572.079 210.686C574.28 218.665 575.105 229.119 573.73 234.897C572.355 240.674 569.879 250.578 571.254 256.356C572.629 262.133 575.656 272.863 573.73 282.216C571.804 291.57 571.529 300.098 571.529 300.098C571.529 300.098 580.745 327.399 583.221 338.403C585.697 349.408 592.845 366.472 600.865 385.718" stroke="#263238" stroke-miterlimit="10"/>
<path d="M549.247 292.395C549.247 292.395 564.103 292.945 568.23 300.924" stroke="#263238" stroke-miterlimit="10"/>
<path d="M533.015 291.845C533.015 291.845 536.316 293.22 537.967 298.998L533.015 291.845Z" fill="white"/>
<path d="M533.015 291.845C533.015 291.845 536.316 293.22 537.967 298.998" stroke="#263238" stroke-miterlimit="10"/>
<path d="M537.417 322.107C537.417 322.107 536.867 324.583 546.77 323.758L537.417 322.107Z" fill="white"/>
<path d="M537.417 322.107C537.417 322.107 536.867 324.583 546.77 323.758" stroke="#263238" stroke-miterlimit="10"/>
<path d="M516.636 207.887C516.898 208.801 517.289 211.412 516.898 212.457C516.506 213.502 510.238 216.374 508.672 214.938C507.105 213.502 508.802 210.629 508.802 210.629C508.802 210.629 511.035 208.893 513.206 207.808C515.377 206.722 516.636 207.887 516.636 207.887Z" fill="#92E3A9" stroke="#263238" stroke-miterlimit="10"/>
<path d="M510.49 173.347C510.004 173.347 509.522 173.135 509.193 172.727C508.167 171.452 483.954 141.263 475.021 120.246C467.233 101.919 460.29 86.4797 454.189 83.1759C453.56 82.8347 452.95 82.5768 452.368 82.4013C457.728 90.7288 462.706 100.329 462.156 104.552C461.893 106.568 460.64 107.821 458.805 107.902C453.495 108.134 445.672 98.6569 444.15 91.8079C442.517 84.458 444.99 81.3097 446.609 80.0883C446.656 80.0525 446.703 80.0184 446.751 79.9851C445.614 78.3453 444.502 76.8194 443.464 75.4807C441.353 77.46 438.443 77.8311 435.753 76.326C429.219 72.6669 418.827 57.304 413.244 49.0514L412.302 47.6603C411.786 46.8998 411.984 45.8648 412.744 45.349C413.504 44.8331 414.54 45.0312 415.056 45.7916L416 47.1869C421.041 54.6399 431.533 70.1484 437.379 73.4223C439.242 74.4648 440.572 73.6969 441.345 72.8932C440.91 72.3956 440.501 71.9555 440.125 71.5786C436.297 67.7514 433.383 62.3376 435.52 59.8424C436.451 58.7542 438.383 58.0528 442.283 60.9041C446.38 63.8984 447.035 68.8987 445.433 72.6194C446.828 74.37 448.392 76.4974 449.99 78.8245C451.767 78.6731 453.745 79.1523 455.773 80.2514C462.253 83.7616 468.131 95.5252 478.084 118.946C486.835 139.535 511.536 170.333 511.785 170.641C512.361 171.357 512.248 172.405 511.532 172.981C511.226 173.227 510.857 173.347 510.49 173.347ZM448.613 82.7449C446.968 83.9879 446.514 87.1054 447.398 91.0857C448.579 96.3963 453.305 102.063 456.979 104.023C458.044 104.592 458.621 104.607 458.751 104.565C458.744 104.555 458.816 104.431 458.856 104.121C459.085 102.364 457.415 97.2633 452.039 88.2178C450.938 86.3682 449.778 84.5179 448.613 82.7449ZM438.143 62.3259C438.318 63.5032 439.502 66.2472 442.478 69.2249C442.596 69.3422 442.716 69.4662 442.84 69.596C443.122 67.5892 442.562 65.2288 440.32 63.5897C439.244 62.8035 438.549 62.4682 438.143 62.3259Z" fill="#FF725E" stroke="#263238" stroke-miterlimit="10"/>
<path d="M471.919 76.9048L467.763 78.6013L512.438 188.049L516.595 186.353L471.919 76.9048Z" fill="white" stroke="#263238" stroke-miterlimit="10"/>
<path d="M540.556 129.669C540.553 129.636 540.555 129.601 540.544 129.569C539.948 127.784 527.878 130.205 513.586 134.975C499.293 139.746 488.19 145.061 488.786 146.845C488.812 146.924 527.163 261.57 535.505 286.508C536.384 289.135 538.954 290.638 541.249 289.872L584.632 275.391C586.929 274.625 588.079 271.871 587.201 269.242L540.556 129.669Z" stroke="#263238" stroke-miterlimit="10"/>
<path d="M581.075 258.24L551.374 170.223L498.345 167.255C508.17 196.627 528.499 256.54 534.295 273.865C535.09 276.242 537.415 277.603 539.493 276.91L578.75 263.806C580.829 263.111 581.87 260.619 581.075 258.24Z" fill="#FF725E" stroke="#263238" stroke-miterlimit="10"/>
<path d="M518.395 210.287L541.294 279.842" stroke="#263238" stroke-miterlimit="10"/>
<path d="M508.791 181.116L516.702 205.146" stroke="#263238" stroke-miterlimit="10"/>
<path d="M533.141 134.701L576.764 267.203" stroke="white" stroke-width="3" stroke-miterlimit="10"/>
<path d="M516.234 287.168C515.958 288.269 531.364 273.137 536.592 270.111C541.819 267.085 548.972 265.709 552.548 263.784C556.125 261.858 558.601 266.26 556.95 269.837C555.299 273.413 548.972 277.265 543.47 281.667C537.968 286.069 534.941 289.095 533.016 291.846C531.09 294.597 533.016 300.374 529.165 303.95" fill="white"/>
<path d="M516.234 287.168C515.958 288.269 531.364 273.137 536.592 270.111C541.819 267.085 548.972 265.709 552.548 263.784C556.125 261.858 558.601 266.26 556.95 269.837C555.299 273.413 548.972 277.265 543.47 281.667C537.968 286.069 534.941 289.095 533.016 291.846C531.09 294.597 533.016 300.374 529.165 303.95" stroke="#263238" stroke-miterlimit="10"/>
<path d="M499.176 267.91C499.176 267.91 503.027 253.604 504.128 245.076C505.229 236.547 522.286 228.569 526.688 226.643C531.09 224.717 544.02 220.315 544.57 224.167C545.12 228.018 543.745 229.394 538.793 233.245C533.84 237.097 528.063 240.123 523.936 243.975C519.81 247.826 519.81 251.128 519.81 251.128" fill="white"/>
<path d="M499.176 267.91C499.176 267.91 503.027 253.604 504.128 245.076C505.229 236.547 522.286 228.569 526.688 226.643C531.09 224.717 544.02 220.315 544.57 224.167C545.12 228.018 543.745 229.394 538.793 233.245C533.84 237.097 528.063 240.123 523.936 243.975C519.81 247.826 519.81 251.128 519.81 251.128" stroke="#263238" stroke-miterlimit="10"/>
<path d="M532.567 225.253C532.567 225.253 532.175 225.776 532.567 227.342C532.959 228.909 533.481 229.693 534.264 229.693C535.048 229.693 540.793 228.778 541.838 228.126C542.883 227.473 542.36 223.033 542.36 223.033" fill="#92E3A9"/>
<path d="M532.567 225.253C532.567 225.253 532.175 225.776 532.567 227.342C532.959 228.909 533.481 229.693 534.264 229.693C535.048 229.693 540.793 228.778 541.838 228.126C542.883 227.473 542.36 223.033 542.36 223.033" stroke="#263238" stroke-miterlimit="10"/>
<path d="M503.578 278.639C503.578 278.639 508.255 262.132 510.181 258.831C512.107 255.53 527.238 248.102 532.19 246.726C537.142 245.351 549.797 243.975 553.373 243.425C556.95 242.875 560.251 244.8 557.775 249.202C555.299 253.604 543.195 257.18 537.967 259.106C532.74 261.033 532.465 261.858 529.164 263.783C525.862 265.709 523.111 268.46 523.111 268.46C523.111 268.46 522.286 276.163 522.836 279.739" fill="white"/>
<path d="M503.578 278.639C503.578 278.639 508.255 262.132 510.181 258.831C512.107 255.53 527.238 248.102 532.19 246.726C537.142 245.351 549.797 243.975 553.373 243.425C556.95 242.875 560.251 244.8 557.775 249.202C555.299 253.604 543.195 257.18 537.967 259.106C532.74 261.033 532.465 261.858 529.164 263.783C525.862 265.709 523.111 268.46 523.111 268.46C523.111 268.46 522.286 276.163 522.836 279.739" stroke="#263238" stroke-miterlimit="10"/>
<path d="M546.93 244.448C546.93 244.448 545.625 244.84 546.016 246.407C546.408 247.973 547.322 248.888 549.02 249.149C550.717 249.41 556.724 248.235 556.724 248.235C556.724 248.235 555.548 245.623 556.201 243.926" fill="#92E3A9"/>
<path d="M546.93 244.448C546.93 244.448 545.625 244.84 546.016 246.407C546.408 247.973 547.322 248.888 549.02 249.149C550.717 249.41 556.724 248.235 556.724 248.235C556.724 248.235 555.548 245.623 556.201 243.926" stroke="#263238" stroke-miterlimit="10"/>
<path d="M557.115 267.168C556.884 267.928 550.456 270.955 548.236 269.519C546.016 268.083 547.583 266.515 547.583 266.515C547.583 266.515 548.485 265.748 550.114 264.662C551.742 263.577 552.149 263.17 554.185 263.17C556.22 263.17 557.468 266.011 557.115 267.168Z" fill="#92E3A9" stroke="#263238" stroke-miterlimit="10"/>
<path d="M469.926 213.088C473.93 206.552 472.345 191.683 472.345 191.683L489.317 159.095C489.317 159.095 491.139 159.306 493.814 157.206C495.33 156.017 500.278 142.89 500.278 142.89L493.243 137.627L486.616 131.858C486.616 131.858 474.94 139.521 473.982 141.192C472.177 144.34 473.083 145.987 473.083 145.987L444.8 169.441C444.8 169.441 429.932 171.024 424.386 176.314C418.84 181.604 364.373 250.692 364.373 250.692C364.373 250.692 359.41 253.871 360.796 261.356C361.474 265.017 363.536 268.278 366.432 270.617L374.47 277.108L378.106 280.044L378.326 280.221L381.963 283.157L390.001 289.647C392.898 291.986 396.519 293.315 400.241 293.207C407.85 292.985 409.913 287.464 409.913 287.464C409.913 287.464 465.922 219.623 469.926 213.088Z" fill="#828282" stroke="#263238" stroke-miterlimit="10"/>
<path d="M487.827 133.27L490.031 134.92L485.262 130.769C485.262 130.769 485.197 130.811 485.086 130.884L487.827 133.27Z" fill="#263238"/>
<path d="M468.76 211.765C472.743 205.254 471.133 190.418 471.133 190.418L488.013 157.944C488.013 157.944 489.833 158.158 492.5 156.069C494.011 154.885 498.925 141.801 498.925 141.801L494.795 138.71C494.21 140.255 489.845 151.698 488.436 152.802C485.77 154.891 483.949 154.677 483.949 154.677L467.07 187.151C467.07 187.151 468.68 201.986 464.696 208.498C460.712 215.009 404.882 282.628 404.882 282.628C404.882 282.628 402.833 288.132 395.236 288.337C391.607 288.435 388.075 287.159 385.213 284.92L389.07 288.033C391.967 290.372 395.585 291.705 399.3 291.604C406.897 291.399 408.945 285.895 408.945 285.895C408.945 285.895 464.775 218.276 468.76 211.765Z" fill="#263238"/>
<path d="M498.785 142.081L496.7 140.282L501.777 144.049C501.777 144.049 501.75 144.122 501.702 144.246L498.785 142.081Z" fill="white"/>
<path d="M426.212 177.552C431.716 172.263 446.552 170.652 446.552 170.652L474.646 147.196C474.646 147.196 474.046 145.463 475.514 142.411C476.346 140.681 488.071 133.073 488.071 133.073L491.976 136.443C490.593 137.346 480.353 144.066 479.578 145.678C478.11 148.731 478.709 150.463 478.709 150.463L450.615 173.919C450.615 173.919 435.78 175.53 430.275 180.819C424.771 186.107 370.712 255.15 370.712 255.15C370.712 255.15 365.776 258.332 367.206 265.796C367.889 269.362 369.893 272.538 372.694 274.853L368.825 271.755C365.919 269.428 363.841 266.18 363.142 262.529C361.713 255.065 366.648 251.883 366.648 251.883C366.648 251.883 420.707 182.841 426.212 177.552Z" fill="white"/>
<path d="M442.561 185.905C441.357 187.403 438.615 187.197 436.436 185.445C434.258 183.694 433.468 181.06 434.672 179.562C435.876 178.065 438.619 178.27 440.797 180.022C442.976 181.774 443.765 184.408 442.561 185.905Z" fill="white"/>
<path d="M498.324 144.709L485.727 134.537C483.882 133.047 483.593 130.342 485.084 128.497C486.574 126.651 489.279 126.362 491.125 127.853L503.721 138.025C505.566 139.516 505.855 142.22 504.364 144.066C502.874 145.911 500.169 146.199 498.324 144.709Z" fill="#828282" stroke="#263238" stroke-miterlimit="10"/>
<path d="M491.974 133.671C491.197 134.637 489.424 134.501 488.013 133.367C486.603 132.233 486.089 130.53 486.866 129.564C487.644 128.597 489.417 128.734 490.828 129.868C492.237 131.002 492.751 132.705 491.974 133.671Z" fill="white"/>
<path d="M496.762 137.981C496.193 138.689 497.105 140.367 498.799 141.729C500.493 143.091 502.327 143.621 502.896 142.914C503.466 142.207 502.554 140.529 500.86 139.167C499.165 137.804 497.33 137.274 496.762 137.981Z" fill="#263238"/>
<path d="M475.633 185.37L483.755 169.775L481.072 167.61C481.159 164.067 479.659 160.525 476.689 158.127C473.719 155.729 469.941 155.009 466.496 155.84L463.814 153.675L450.279 164.898L475.633 185.37Z" fill="#D76CB7" stroke="#263238" stroke-miterlimit="10"/>
<path d="M365.98 248.647L411.574 285.463C417.981 277.737 452.377 235.793 463.817 221.242L417.701 184.004C405.886 198.252 372.183 240.756 365.98 248.647Z" fill="#D76CB7" stroke="#263238" stroke-miterlimit="10"/>
<path d="M434.565 248.733C442.714 238.188 440.772 223.034 430.227 214.884C419.681 206.735 404.527 208.678 396.378 219.223C388.228 229.768 390.171 244.923 400.716 253.072C411.261 261.221 426.416 259.279 434.565 248.733Z" fill="white" stroke="#263238" stroke-miterlimit="10"/>
<path d="M410.072 401.921C408.469 383.26 404.091 332.922 402.874 325.865C401.376 317.177 396.282 308.487 392.088 301.896C387.893 295.304 382.5 289.612 379.804 280.025C377.107 270.437 372.014 254.258 372.014 254.258C372.014 254.258 366.92 241.973 369.018 235.681C371.115 229.39 378.306 230.588 378.306 230.588C378.306 230.588 376.508 223.397 379.804 219.802C383.1 216.207 390.89 216.806 390.89 216.806C390.89 216.806 388.793 211.413 391.19 206.918C393.587 202.424 400.178 201.825 401.377 203.024C402.575 204.222 414.859 215.907 414.859 215.907C414.859 215.907 413.361 200.327 413.361 196.433C413.361 192.538 410.964 191.639 410.964 191.639C410.964 191.639 405.271 194.335 405.271 187.444C405.271 180.553 415.159 180.553 417.855 180.853C420.552 181.152 427.443 186.246 429.54 188.343C431.637 190.441 436.431 204.522 437.929 216.807C439.426 229.091 446.917 241.674 446.917 241.674L455.006 232.386C455.006 232.386 457.403 232.386 458.602 235.082C459.8 237.779 460.399 246.767 460.399 252.16C460.399 257.553 458.901 267.141 455.606 274.331C452.31 281.521 449.314 287.514 451.111 297.701C452.909 307.888 459.5 331.857 459.5 331.857L479.019 399.894" fill="white"/>
<path d="M410.072 401.921C408.469 383.26 404.091 332.922 402.874 325.865C401.376 317.177 396.282 308.487 392.088 301.896C387.893 295.304 382.5 289.612 379.804 280.025C377.107 270.437 372.014 254.258 372.014 254.258C372.014 254.258 366.92 241.973 369.018 235.681C371.115 229.39 378.306 230.588 378.306 230.588C378.306 230.588 376.508 223.397 379.804 219.802C383.1 216.207 390.89 216.806 390.89 216.806C390.89 216.806 388.793 211.413 391.19 206.918C393.587 202.424 400.178 201.825 401.377 203.024C402.575 204.222 414.859 215.907 414.859 215.907C414.859 215.907 413.361 200.327 413.361 196.433C413.361 192.538 410.964 191.639 410.964 191.639C410.964 191.639 405.271 194.335 405.271 187.444C405.271 180.553 415.159 180.553 417.855 180.853C420.552 181.152 427.443 186.246 429.54 188.343C431.637 190.441 436.431 204.522 437.929 216.807C439.426 229.091 446.917 241.674 446.917 241.674L455.006 232.386C455.006 232.386 457.403 232.386 458.602 235.082C459.8 237.779 460.399 246.767 460.399 252.16C460.399 257.553 458.901 267.141 455.606 274.331C452.31 281.521 449.314 287.514 451.111 297.701C452.909 307.888 459.5 331.857 459.5 331.857L479.019 399.894" stroke="#263238" stroke-miterlimit="10"/>
<path d="M390.889 216.806L399.279 226.693" stroke="#263238" stroke-miterlimit="10"/>
<path d="M378.306 230.588L384.598 241.374" stroke="#263238" stroke-miterlimit="10"/>
<path d="M416.057 228.79C416.057 228.79 416.357 235.381 412.163 240.775" stroke="#263238" stroke-miterlimit="10"/>
<path d="M397.481 237.479C397.481 237.479 397.781 244.071 395.983 247.367" stroke="#263238" stroke-miterlimit="10"/>
<path d="M383.699 249.164C383.699 249.164 383.4 253.659 381.602 257.254" stroke="#263238" stroke-miterlimit="10"/>
<path d="M446.917 241.674C446.917 241.674 450.812 245.568 454.108 246.767" stroke="#263238" stroke-miterlimit="10"/>
<path d="M429.54 188.342C429.54 188.342 424.763 184.459 421.498 188.615" stroke="#263238" stroke-miterlimit="10"/>
<path opacity="0.18" d="M239.084 233.244C238.542 233.778 237.916 234.19 237.248 234.499C237.245 235.243 237.31 235.691 237.31 235.691L248.86 281.829C248.86 281.829 250.653 286.125 254.399 288.468C252.434 286.322 251.479 284.039 251.479 284.039L239.928 237.901C239.928 237.901 239.475 234.814 241.018 231.334L239.084 233.244Z" fill="black"/>
<path opacity="0.18" d="M284.364 291.363C284.382 291.412 284.402 291.46 284.414 291.51C285.419 295.43 271.774 302.066 253.937 306.333C245.477 308.357 236.39 310.077 227.699 309.69C226.039 309.616 224.045 309.342 222.49 308.789C223.249 310.599 227.217 311.355 230.149 311.486C238.84 311.872 247.927 310.152 256.387 308.129C274.224 303.861 287.869 297.225 286.864 293.306C286.649 292.465 285.775 291.819 284.364 291.363Z" fill="black"/>
<path d="M269.687 289.373C267.755 289.562 265.813 289.65 263.873 289.563C261.266 289.448 259.209 289.194 258.297 288.652C254.404 286.342 252.548 281.877 252.548 281.877L240.997 235.74C240.997 235.74 240.471 232.174 242.466 228.387C244.253 224.994 262.524 171.479 266.313 160.361C262.598 165.056 244.927 172.302 222.992 177.805C201.085 183.301 182.105 185.258 176.587 182.887C185.252 190.911 226.822 229.368 229.997 231.515C233.544 233.912 234.763 237.304 234.763 237.304L246.314 283.442C246.314 283.442 246.785 288.254 244.443 292.128C243.837 293.132 241.829 294.487 239.225 295.992C237.691 296.878 236.096 297.666 234.469 298.369C229.449 300.538 225.545 302.815 223.268 304.924C217.573 310.2 224.769 312.337 229.431 312.696C238.555 313.399 248.035 311.601 256.85 309.423C275.435 304.828 289.558 297.29 288.395 292.585C287.614 289.428 280.14 288.35 269.687 289.373Z" stroke="#263238" stroke-miterlimit="10"/>
<path d="M267.001 158.341C268.1 162.718 248.395 171.432 222.992 177.806C197.588 184.18 176.104 185.799 175.005 181.423C173.907 177.046 193.611 168.332 219.015 161.958C244.419 155.584 265.904 153.964 267.001 158.341Z" stroke="#263238" stroke-miterlimit="10"/>
<path d="M231.853 228.704C232.631 229.198 233.919 229.805 235.32 229.585C237.938 229.176 239.362 226.824 239.725 226.139C239.758 226.075 239.787 226.011 239.822 225.947C241.236 223.358 257.326 178.122 257.326 178.122L200.493 201.147C211.135 210.705 229.351 227.002 231.088 228.139C231.363 228.32 231.616 228.51 231.853 228.704Z" fill="#A699C5" stroke="#263238" stroke-miterlimit="10"/>
<path d="M228.848 224.078L232.966 228.097" stroke="#263238" stroke-miterlimit="10"/>
<path d="M194.291 190.35L226.679 221.96" stroke="#263238" stroke-miterlimit="10"/>
<path d="M249.287 169.646L236.533 213.381L240.904 214.657L254.674 167.438C253.015 168.165 251.212 168.904 249.287 169.646Z" fill="#CCCCCC" stroke="#263238" stroke-miterlimit="10"/>
<path d="M226.134 179.29L236.778 223.806C236.885 224.249 237.578 224.143 237.533 223.69L232.835 177.015L226.134 179.29Z" fill="white"/>
<path d="M270.883 137.75C267.626 137.249 264.301 137.95 261.52 139.721C258.743 141.492 256.706 144.207 255.785 147.368L253.255 156.042L249.287 169.647C251.212 168.905 253.014 168.166 254.674 167.438L258.044 155.882L260.155 148.643C260.768 146.542 262.121 144.737 263.966 143.561C265.815 142.381 268.025 141.918 270.19 142.251L297.299 146.423L297.992 141.922L270.883 137.75Z" fill="#CCCCCC" stroke="#263238" stroke-miterlimit="10"/>
<path d="M236.204 231.978L250.203 287.432C250.203 287.432 251.25 290.422 249.042 293.038C246.834 295.654 238.735 300.836 238.096 302.67C237.458 304.504 241.406 305.973 251.78 303.797C262.154 301.62 266.757 300.028 266.757 300.028C266.757 300.028 253.757 307.838 238.785 307.686C223.813 307.534 231.009 302.765 234.77 300.594C238.53 298.424 246.14 294.557 247.417 290.89C248.694 287.222 247.295 282.338 246.441 279.068C245.587 275.797 235.098 233.824 235.098 233.824L236.204 231.978Z" stroke="#263238" stroke-miterlimit="10"/>
<path d="M215.699 397.745C216.464 386.934 215.04 341.183 218.008 331.637C224.188 311.752 249.073 290.039 252.329 284.518C255.584 278.996 254.352 276.038 254.352 276.038C254.352 276.038 255.86 268.562 255.358 260.056C254.857 251.549 257.378 243.748 258.623 237.195C259.869 230.643 257.74 224.897 257.74 224.897C257.74 224.897 258.921 223.426 259.944 214.732C260.718 208.156 264.406 201.525 265.817 195.121C266.757 190.858 268.941 183.264 268.803 180.232C268.666 177.2 267.03 180.803 267.03 180.803C267.03 180.803 261.031 183.013 258.463 187.196C255.894 191.378 249.165 199.137 242.143 219.012C235.121 238.888 225.064 251.073 220.396 254.813C215.729 258.553 211.791 256.745 211.306 246.556C210.822 236.366 210.364 223.652 206.839 214.441C203.314 205.23 197.621 202.31 193.773 199.914C189.926 197.518 190.437 205.182 191.063 209.734C191.69 214.286 193.548 221.795 194.338 226.854C195.127 231.913 196.08 237.477 195.939 243.115C195.796 248.753 193.215 262.446 190.457 268.647C187.7 274.847 182.774 287.338 182.32 323.274C182.068 343.242 165.428 390.773 160.658 402.446" fill="white"/>
<path d="M215.699 397.745C216.464 386.934 215.04 341.183 218.008 331.637C224.188 311.752 249.073 290.039 252.329 284.518C255.584 278.996 254.352 276.038 254.352 276.038C254.352 276.038 255.86 268.562 255.358 260.056C254.857 251.549 257.378 243.748 258.623 237.195C259.869 230.643 257.74 224.897 257.74 224.897C257.74 224.897 258.921 223.426 259.944 214.732C260.718 208.156 264.406 201.525 265.817 195.121C266.757 190.858 268.941 183.264 268.803 180.232C268.666 177.2 267.03 180.803 267.03 180.803C267.03 180.803 261.031 183.013 258.463 187.196C255.894 191.378 249.165 199.137 242.143 219.012C235.121 238.888 225.064 251.073 220.396 254.813C215.729 258.553 211.791 256.745 211.306 246.556C210.822 236.366 210.364 223.652 206.839 214.441C203.314 205.23 197.621 202.31 193.773 199.914C189.926 197.518 190.437 205.182 191.063 209.734C191.69 214.286 193.548 221.795 194.338 226.854C195.127 231.913 196.08 237.477 195.939 243.115C195.796 248.753 193.215 262.446 190.457 268.647C187.7 274.847 182.774 287.338 182.32 323.274C182.068 343.242 165.428 390.773 160.658 402.446" stroke="#263238" stroke-miterlimit="10"/>
<path d="M257.74 224.897C257.74 224.897 250.834 241.66 250.584 249.569L257.74 224.897Z" fill="white"/>
<path d="M257.74 224.897C257.74 224.897 250.834 241.66 250.584 249.569" stroke="#263238" stroke-miterlimit="10"/>
<path d="M191.065 209.735C191.065 209.735 193.224 220.783 194.572 220.629C195.92 220.474 199.476 218.491 199.184 214.111C198.892 209.731 195.424 203.298 193.775 199.915C192.126 196.531 189.15 199.446 191.065 209.735Z" fill="#D76CB7" stroke="#263238" stroke-miterlimit="10"/>
<path d="M266.862 180.632C266.862 180.632 263.516 186.742 264.25 189.022C264.984 191.303 267.873 196.335 269.04 184.317C269.376 180.854 269.362 178.842 268.762 178.473C268.164 178.105 266.862 180.632 266.862 180.632Z" fill="#92E3A9" stroke="#263238" stroke-miterlimit="10"/>
<path d="M74.5962 380.694L106.728 311.602C106.728 311.602 116.69 305.009 122.721 302.395C128.751 299.782 143.403 285.022 143.403 285.022L158.507 265.034C158.507 265.034 166.719 259.235 168.838 257.766C170.956 256.298 173.463 251.317 173.731 246.426C173.999 241.535 167.9 239.072 167.9 239.072C167.9 239.072 169.051 238.169 170.833 236.516C172.614 234.863 174.873 231.937 173.945 226.83C173.018 221.722 166.625 220.194 166.625 220.194C166.625 220.194 170.722 218.713 171.524 215.647C172.326 212.581 171.475 207.735 168.473 205.215C165.471 202.696 160.268 206.2 160.268 206.2C160.268 206.2 161.788 204.623 162.864 203.459C163.939 202.295 169.372 199.574 165.314 195.382C161.257 191.189 152.282 194.381 141.798 201.127C131.314 207.874 99.349 223.45 92.9867 232.671C86.6244 241.892 84.1026 256.502 80.5641 263.766C77.0265 271.029 70.5435 278.87 70.5435 278.87C70.5435 278.87 30.2872 341.602 27.4426 346.397C24.598 351.193 19.4854 358.752 19.4854 358.752" fill="white"/>
<path d="M74.5962 380.694L106.728 311.602C106.728 311.602 116.69 305.009 122.721 302.395C128.751 299.782 143.403 285.022 143.403 285.022L158.507 265.034C158.507 265.034 166.719 259.235 168.838 257.766C170.956 256.298 173.463 251.317 173.731 246.426C173.999 241.535 167.9 239.072 167.9 239.072C167.9 239.072 169.052 238.169 170.833 236.516C172.614 234.863 174.873 231.937 173.945 226.83C173.018 221.722 166.625 220.194 166.625 220.194C166.625 220.194 170.722 218.713 171.524 215.647C172.326 212.581 171.475 207.735 168.473 205.215C165.471 202.696 160.268 206.2 160.268 206.2C160.268 206.2 161.788 204.623 162.864 203.459C163.939 202.295 169.372 199.574 165.314 195.382C161.256 191.189 152.282 194.381 141.798 201.127C131.314 207.874 99.349 223.45 92.9867 232.671C86.6244 241.892 84.1026 256.502 80.5641 263.766C77.0265 271.029 70.5435 278.87 70.5435 278.87C70.5435 278.87 30.2872 341.602 27.4426 346.397C24.598 351.193 19.4854 358.752 19.4854 358.752" stroke="#263238" stroke-miterlimit="10"/>
<path d="M66.5183 134.971C73.7533 132.855 81.3337 137.005 83.4495 144.241C84.6575 148.371 83.8172 152.61 81.5325 155.884L115.876 195.326L111.639 197.408L78.0082 159.366C76.8625 160.143 75.5813 160.762 74.181 161.171C66.9459 163.287 59.3656 159.137 57.2498 151.902C55.134 144.667 59.2832 137.087 66.5183 134.971Z" fill="#BFBFBF" stroke="#263238" stroke-miterlimit="10"/>
<path d="M153.458 192.214C166.209 188.482 173.521 175.119 169.789 162.368C166.056 149.616 152.694 142.305 139.942 146.037C127.191 149.769 119.879 163.132 123.611 175.883C127.344 188.635 140.706 195.946 153.458 192.214Z" fill="#FF725E" stroke="#263238" stroke-miterlimit="10"/>
<path d="M138.702 148.105C138.702 148.105 136.947 148.697 134.193 150.556C133.127 151.276 132.962 152.783 133.85 153.712L143.499 165.533C146.053 168.877 147.527 168.297 147.07 164.128L146.073 148.901C146.091 147.615 144.943 146.626 143.671 146.826C140.388 147.342 138.702 148.105 138.702 148.105Z" fill="white" stroke="#263238" stroke-miterlimit="10"/>
<path d="M125.162 162.455C125.162 162.455 124.53 164.195 124.267 167.508C124.166 168.79 125.24 169.859 126.521 169.744L141.779 169.571C145.986 169.659 146.452 168.145 142.907 165.902L130.381 157.188C129.386 156.373 127.897 156.654 127.261 157.771C125.617 160.66 125.162 162.455 125.162 162.455Z" fill="white" stroke="#263238" stroke-miterlimit="10"/>
<path d="M127.938 181.987C127.938 181.987 128.905 183.566 131.331 185.837C132.27 186.716 133.776 186.543 134.484 185.469L143.863 173.432C146.554 170.198 145.661 168.89 141.698 170.263L127.075 174.623C125.817 174.892 125.108 176.232 125.585 177.426C126.819 180.512 127.938 181.987 127.938 181.987Z" fill="white" stroke="#263238" stroke-miterlimit="10"/>
<path d="M144.941 191.994C144.941 191.994 146.778 192.223 150.067 191.742C151.34 191.556 152.143 190.27 151.745 189.047L148.181 174.21C147.33 170.089 145.751 169.972 144.354 173.927L138.645 188.078C138.072 189.229 138.677 190.619 139.908 190.99C143.09 191.95 144.941 191.994 144.941 191.994Z" fill="white" stroke="#263238" stroke-miterlimit="10"/>
<path d="M163.366 184.941C163.366 184.941 164.689 183.647 166.364 180.776C167.012 179.665 166.508 178.236 165.303 177.784L151.481 171.32C147.729 169.415 146.653 170.577 148.874 174.135L156.379 187.421C156.921 188.588 158.384 188.98 159.443 188.249C162.178 186.361 163.366 184.941 163.366 184.941Z" fill="white" stroke="#263238" stroke-miterlimit="10"/>
<path d="M169.339 166.138C169.339 166.138 169.154 164.296 167.952 161.197C167.488 159.998 166.056 159.5 164.952 160.161L151.28 166.937C147.451 168.683 147.689 170.249 151.856 170.731L166.922 173.148C168.172 173.45 169.393 172.551 169.481 171.268C169.708 167.953 169.339 166.138 169.339 166.138Z" fill="white" stroke="#263238" stroke-miterlimit="10"/>
<path d="M158.363 149.745C158.363 149.745 156.807 148.742 153.635 147.748C152.408 147.364 151.127 148.173 150.955 149.448L147.728 164.362C146.706 168.443 148.078 169.234 151.054 166.278L162.336 156.005C163.352 155.216 163.41 153.702 162.462 152.833C160.011 150.588 158.363 149.745 158.363 149.745Z" fill="white" stroke="#263238" stroke-miterlimit="10"/>
<path d="M96.9087 180.982C96.64 179.735 108.017 176.224 122.32 173.14C136.623 170.056 148.435 168.566 148.704 169.813C148.704 169.813 164.069 205.179 164.984 220.392C166.589 247.1 157.804 266.36 157.804 266.36L153.841 277.158L133.747 281.052L128.059 275.348C125.729 273.012 123.591 270.5 121.662 267.824C116.348 260.453 109.098 253.446 103.194 235.358C95.1623 210.748 96.9087 180.982 96.9087 180.982Z" stroke="#263238" stroke-miterlimit="10"/>
<path d="M150.83 179.772C155.12 190.366 162.732 210.415 163.351 220.714C164.871 246.001 156.553 264.237 156.553 264.237L152.094 277.19L135.528 280.754L128.39 272.747C126.184 270.536 124.159 268.157 122.333 265.623C117.302 258.646 110.437 252.01 104.848 234.884C101.372 224.233 99.8331 212.569 99.1833 203.035L150.83 179.772Z" fill="#D76CB7" stroke="#263238" stroke-miterlimit="10"/>
<path d="M137.979 196.994C140.273 206.572 141.21 214.557 140.072 214.83C138.934 215.103 136.152 207.559 133.858 197.981C131.564 188.403 130.627 180.418 131.765 180.146C132.903 179.873 135.685 187.416 137.979 196.994Z" fill="white"/>
<path d="M121.081 256.502C128.858 268.363 137.403 276.707 137.403 276.707L121.081 256.502Z" fill="#92E3A9"/>
<path d="M121.081 256.502C128.858 268.363 137.403 276.707 137.403 276.707" stroke="#263238" stroke-miterlimit="10"/>
<path d="M100.892 182.906C100.892 182.906 104.26 217.392 111.634 238.069C113.416 243.065 115.84 247.901 118.493 252.364" fill="#D76CB7"/>
<path d="M100.892 182.906C100.892 182.906 104.26 217.392 111.634 238.069C113.416 243.065 115.84 247.901 118.493 252.364" stroke="#263238" stroke-miterlimit="10"/>
<path d="M127.964 330.518C132.126 328.67 138.197 324.282 140.369 319.844C142.541 315.406 144.091 308.076 142.155 300.186C140.219 292.295 136.216 288.364 136.216 288.364L132.89 280.826L143.943 279.297L154.288 276.613L154.089 284.849C154.089 284.849 151.887 290.01 153.107 298.043C154.327 306.076 158.556 312.26 162.256 315.534C165.956 318.808 173.241 320.55 177.793 320.67C182.346 320.791 183.412 321.125 183.412 321.125L183.549 322.698L153.872 328.796L123.415 334.587L122.943 333.08C122.943 333.08 123.801 332.366 127.964 330.518Z" fill="white" stroke="#263238" stroke-miterlimit="10"/>
<path d="M134.276 285.411L155.238 281.002C156.433 280.751 157.205 279.568 156.953 278.373L156.943 278.323C156.691 277.128 155.508 276.356 154.314 276.608L133.352 281.016C132.157 281.268 131.385 282.451 131.637 283.645L131.647 283.695C131.898 284.89 133.082 285.662 134.276 285.411Z" fill="#828282" stroke="#263238" stroke-miterlimit="10"/>
<path d="M137.363 290.465L154.685 286.822C155.88 286.571 156.652 285.388 156.401 284.193L156.39 284.143C156.139 282.948 154.956 282.176 153.761 282.427L136.439 286.071C135.244 286.322 134.472 287.505 134.723 288.7L134.734 288.75C134.985 289.945 136.168 290.717 137.363 290.465Z" fill="#828282" stroke="#263238" stroke-miterlimit="10"/>
<path d="M102.902 236.566C101.007 232.024 100.944 223.241 100.976 222.383C101.008 221.524 102.71 220.1 105.37 215.642C108.03 211.184 108.261 204.075 106.592 200.129C104.121 194.287 102.185 193.461 100.926 194.961C99.666 196.462 97.1142 200.322 93.3037 205.683C89.4923 211.044 87.8923 210.867 85.3206 217.565C82.7497 224.261 84.68 225.96 79.9892 247.01C78.1912 255.076 75.6777 270.29 75.6777 270.29L76.1154 274.691" fill="white"/>
<path d="M102.902 236.566C101.007 232.024 100.944 223.241 100.976 222.383C101.008 221.524 102.71 220.1 105.37 215.642C108.03 211.184 108.261 204.075 106.592 200.129C104.121 194.287 102.185 193.461 100.926 194.961C99.666 196.462 97.1142 200.322 93.3037 205.683C89.4923 211.044 87.8923 210.867 85.3206 217.565C82.7497 224.261 84.68 225.96 79.9892 247.01C78.1912 255.076 75.6777 270.29 75.6777 270.29L76.1154 274.691" stroke="#263238" stroke-miterlimit="10"/>
<path d="M115.252 260.002C115.252 260.002 119.236 275.306 107.813 283.318L115.252 260.002Z" fill="white"/>
<path d="M115.252 260.002C115.252 260.002 119.236 275.306 107.813 283.318" stroke="#263238" stroke-miterlimit="10"/>
<path d="M168.598 254.971C168.598 254.971 164.341 253.02 162.772 251.02L168.598 254.971Z" fill="white"/>
<path d="M168.598 254.971C168.598 254.971 164.341 253.02 162.772 251.02" stroke="#263238" stroke-miterlimit="10"/>
<path d="M167.899 239.073L164.604 237.949" stroke="#263238" stroke-miterlimit="10"/>
<path d="M161.7 255.759C161.7 255.759 162.815 257.892 165.411 258.362L161.7 255.759Z" fill="white"/>
<path d="M161.7 255.759C161.7 255.759 162.815 257.892 165.411 258.362" stroke="#263238" stroke-miterlimit="10"/>
<path d="M100.926 194.961C100.926 194.961 104.345 198.664 103.487 201.946C102.628 205.229 99.0586 209.607 97.8938 208.735C96.7298 207.863 95.4835 206.711 95.6682 204.233" fill="white"/>
<path d="M100.926 194.961C100.926 194.961 104.345 198.664 103.487 201.946C102.628 205.229 99.0586 209.607 97.8938 208.735C96.7298 207.863 95.4835 206.711 95.6682 204.233" stroke="#263238" stroke-miterlimit="10"/>
</svg>
