<svg width="392" height="277" viewBox="0 0 392 277" fill="none" xmlns="http://www.w3.org/2000/svg">
<path d="M52.7096 -37.5694L264.434 272.569H339.29L127.566 -37.5694H52.7096ZM82.3864 104.208C66.736 104.208 52.7096 107.457 40.3074 113.956C27.9051 120.749 18.0128 130.644 10.6305 143.64C3.5435 156.637 0 172.291 0 190.604C0 208.917 3.5435 224.424 10.6305 237.125C18.0128 250.121 27.9051 260.016 40.3074 266.81C52.7096 273.603 66.736 277 82.3864 277C98.0369 277 112.063 273.603 124.466 266.81C136.868 260.016 146.612 250.121 153.699 237.125C161.082 224.424 164.773 208.917 164.773 190.604C164.773 172.291 161.082 156.637 153.699 143.64C146.612 130.644 136.868 120.749 124.466 113.956C112.063 107.457 98.0369 104.208 82.3864 104.208ZM82.3864 152.058C87.4064 152.058 91.8358 154.717 95.6746 160.033C99.8087 165.645 101.876 175.836 101.876 190.604C101.876 205.373 99.8087 215.415 95.6746 220.732C91.8358 226.344 87.4064 229.15 82.3864 229.15C77.6618 229.15 73.2324 226.344 69.0983 220.732C64.9642 215.415 62.8972 205.373 62.8972 190.604C62.8972 175.836 64.9642 165.645 69.0983 160.033C73.2324 154.717 77.6618 152.058 82.3864 152.058ZM309.614 -42C293.963 -42 279.937 -38.7509 267.534 -32.2528C255.132 -25.4593 245.24 -15.5644 237.858 -2.56805C230.771 10.4282 227.227 26.0829 227.227 44.3958C227.227 62.7088 230.771 78.2157 237.858 90.9167C245.24 103.913 255.132 113.808 267.534 120.601C279.937 127.395 293.963 130.792 309.614 130.792C325.264 130.792 339.29 127.395 351.693 120.601C364.095 113.808 373.84 103.913 380.927 90.9167C388.309 78.2157 392 62.7088 392 44.3958C392 26.0829 388.309 10.4282 380.927 -2.56805C373.84 -15.5644 364.095 -25.4593 351.693 -32.2528C339.29 -38.7509 325.264 -42 309.614 -42ZM309.614 5.85C314.634 5.85 319.063 8.50834 322.902 13.825C327.036 19.437 329.103 29.6273 329.103 44.3958C329.103 59.1644 327.036 69.2069 322.902 74.5236C319.063 80.1357 314.634 82.9417 309.614 82.9417C304.889 82.9417 300.46 80.1357 296.325 74.5236C292.191 69.2069 290.124 59.1644 290.124 44.3958C290.124 29.6273 292.191 19.437 296.325 13.825C300.46 8.50834 304.889 5.85 309.614 5.85Z" fill="white" fill-opacity="0.74"/>
</svg>
