<svg width="230" height="208" viewBox="0 0 230 208" fill="none" xmlns="http://www.w3.org/2000/svg">
<path d="M2.36384 2.97222L144.414 211.028H194.636L52.5864 2.97222H2.36384ZM22.2746 98.0833C11.7744 98.0833 2.36385 100.263 -5.95706 104.622C-14.278 109.18 -20.9149 115.818 -25.8678 124.536C-30.6226 133.255 -33 143.756 -33 156.042C-33 168.327 -30.6226 178.73 -25.8678 187.25C-20.9149 195.969 -14.278 202.607 -5.95706 207.164C2.36385 211.721 11.7744 214 22.2746 214C32.7748 214 42.1853 211.721 50.5062 207.164C58.8271 202.607 65.365 195.969 70.1198 187.25C75.0727 178.73 77.5492 168.327 77.5492 156.042C77.5492 143.756 75.0727 133.255 70.1198 124.536C65.365 115.818 58.8271 109.18 50.5062 104.622C42.1853 100.263 32.7748 98.0833 22.2746 98.0833ZM22.2746 130.183C25.6426 130.183 28.6143 131.967 31.1898 135.533C33.9635 139.298 35.3503 146.134 35.3503 156.042C35.3503 165.949 33.9635 172.686 31.1898 176.253C28.6143 180.018 25.6426 181.9 22.2746 181.9C19.1047 181.9 16.133 180.018 13.3593 176.253C10.5857 172.686 9.19887 165.949 9.19887 156.042C9.19887 146.134 10.5857 139.298 13.3593 135.533C16.133 131.967 19.1047 130.183 22.2746 130.183ZM174.725 0C164.225 0 154.815 2.17963 146.494 6.53889C138.173 11.0963 131.536 17.7343 126.583 26.4528C121.828 35.1713 119.451 45.6732 119.451 57.9583C119.451 70.2435 121.828 80.6463 126.583 89.1667C131.536 97.8852 138.173 104.523 146.494 109.081C154.815 113.638 164.225 115.917 174.725 115.917C185.226 115.917 194.636 113.638 202.957 109.081C211.278 104.523 217.816 97.8852 222.571 89.1667C227.524 80.6463 230 70.2435 230 57.9583C230 45.6732 227.524 35.1713 222.571 26.4528C217.816 17.7343 211.278 11.0963 202.957 6.53889C194.636 2.17963 185.226 0 174.725 0ZM174.725 32.1C178.093 32.1 181.065 33.8833 183.641 37.45C186.414 41.2148 187.801 48.0509 187.801 57.9583C187.801 67.8657 186.414 74.6028 183.641 78.1694C181.065 81.9343 178.093 83.8167 174.725 83.8167C171.556 83.8167 168.584 81.9343 165.81 78.1694C163.037 74.6028 161.65 67.8657 161.65 57.9583C161.65 48.0509 163.037 41.2148 165.81 37.45C168.584 33.8833 171.556 32.1 174.725 32.1Z" fill="white" fill-opacity="0.48"/>
</svg>
