<svg width="96" height="96" viewBox="0 0 96 96" fill="none" xmlns="http://www.w3.org/2000/svg">
<path fill-rule="evenodd" clip-rule="evenodd" d="M81.9709 14.0031C73.315 5.34877 61.3769 0 48.1667 0C34.9568 0 23.0185 5.34877 14.3626 14.0029C5.70739 22.6599 0.359619 34.6245 0.359619 47.8071C0.359619 61.017 5.70739 72.9551 14.3626 81.6123C23.0185 90.2675 34.9568 95.6151 48.1667 95.6151C61.3769 95.6151 73.315 90.2673 81.9709 81.6123C90.6261 72.9551 95.9749 61.017 95.9749 47.8071C95.9749 34.6247 90.6263 22.6601 81.9709 14.0031ZM79.3244 78.9905C71.3557 86.9583 60.3433 91.8826 48.1667 91.8826C35.9902 91.8826 24.9778 86.9583 17.0091 78.9905C9.01659 70.9963 4.09224 59.9847 4.09224 47.8073C4.09224 35.6315 9.01659 24.6192 17.0091 16.6514C24.9778 8.68347 35.9902 3.73282 48.1667 3.73282C60.3433 3.73282 71.3557 8.68367 79.3244 16.6514C87.3179 24.6192 92.2403 35.6315 92.2403 47.8073C92.2403 59.9847 87.3179 70.9963 79.3244 78.9905Z" fill="#B42F8F"/>
<g clip-path="url(#clip0_3254_4889)">
<mask id="mask0_3254_4889" style="mask-type:luminance" maskUnits="userSpaceOnUse" x="23" y="23" width="50" height="49">
<path d="M72.0002 23H23.0002V72H72.0002V23Z" fill="white"/>
</mask>
<g mask="url(#mask0_3254_4889)">
<path d="M47.5002 27.4119C54.0463 27.4119 54.8216 27.4406 57.396 27.5555C59.7885 27.6607 61.0805 28.0627 61.9419 28.3977C63.0807 28.8379 63.9038 29.3738 64.7555 30.2256C65.6169 31.0869 66.1432 31.9004 66.5835 33.0393C66.9184 33.9006 67.3203 35.2021 67.4257 37.5852C67.5405 40.1691 67.5692 40.9443 67.5692 47.4809C67.5692 54.027 67.5405 54.8021 67.4257 57.3766C67.3203 59.7692 66.9184 61.0612 66.5835 61.9224C66.1432 63.0614 65.6073 63.8844 64.7555 64.7362C63.8942 65.5974 63.0807 66.1239 61.9419 66.5641C61.0805 66.899 59.7789 67.301 57.396 67.4062C54.812 67.5211 54.0367 67.5498 47.5002 67.5498C40.9541 67.5498 40.1789 67.5211 37.6046 67.4062C35.212 67.301 33.92 66.899 33.0586 66.5641C31.9198 66.1239 31.0967 65.5879 30.245 64.7362C29.3836 63.8748 28.8573 63.0614 28.417 61.9224C28.0821 61.0612 27.6801 59.7596 27.5749 57.3766C27.46 54.7926 27.4313 54.0174 27.4313 47.4809C27.4313 40.9348 27.46 40.1596 27.5749 37.5852C27.6801 35.1925 28.0821 33.9006 28.417 33.0393C28.8573 31.9004 29.3932 31.0773 30.245 30.2256C31.1063 29.3643 31.9198 28.8379 33.0586 28.3977C33.92 28.0627 35.2216 27.6607 37.6046 27.5555C40.1789 27.4406 40.9541 27.4119 47.5002 27.4119ZM47.5002 23C40.8489 23 40.0163 23.0287 37.4036 23.1436C34.8005 23.2584 33.0108 23.6795 31.4604 24.2824C29.843 24.9141 28.4745 25.7467 27.1155 27.1152C25.7469 28.4742 24.9143 29.8428 24.2827 31.4506C23.6797 33.0105 23.2586 34.7906 23.1438 37.3937C23.029 40.016 23.0002 40.8487 23.0002 47.5C23.0002 54.1513 23.029 54.984 23.1438 57.5966C23.2586 60.1998 23.6797 61.9895 24.2827 63.5398C24.9143 65.1572 25.7469 66.5258 27.1155 67.8848C28.4745 69.2437 29.843 70.0859 31.4508 70.708C33.0108 71.3109 34.7909 71.732 37.394 71.8469C40.0067 71.9617 40.8393 71.9904 47.4906 71.9904C54.1421 71.9904 54.9747 71.9617 57.5874 71.8469C60.1905 71.732 61.9801 71.3109 63.5305 70.708C65.1383 70.0859 66.5069 69.2437 67.8659 67.8848C69.2249 66.5258 70.0671 65.1572 70.6891 63.5494C71.2921 61.9895 71.7132 60.2094 71.828 57.6063C71.9429 54.9935 71.9716 54.1609 71.9716 47.5096C71.9716 40.8583 71.9429 40.0256 71.828 37.4129C71.7132 34.8098 71.2921 33.0201 70.6891 31.4697C70.0862 29.8428 69.2536 28.4742 67.8851 27.1152C66.526 25.7562 65.1575 24.9141 63.5497 24.292C61.9897 23.6891 60.2096 23.268 57.6065 23.1531C54.9843 23.0287 54.1516 23 47.5002 23Z" fill="#B42F8F"/>
<path d="M47.5002 34.915C40.5522 34.915 34.9153 40.552 34.9153 47.5C34.9153 54.448 40.5522 60.0849 47.5002 60.0849C54.4482 60.0849 60.0851 54.448 60.0851 47.5C60.0851 40.552 54.4482 34.915 47.5002 34.915ZM47.5002 55.6635C42.9926 55.6635 39.3367 52.0076 39.3367 47.5C39.3367 42.9924 42.9926 39.3365 47.5002 39.3365C52.0078 39.3365 55.6637 42.9924 55.6637 47.5C55.6637 52.0076 52.0078 55.6635 47.5002 55.6635Z" fill="#B42F8F"/>
<path d="M63.5209 34.4173C63.5209 36.0443 62.2002 37.3554 60.5828 37.3554C58.9559 37.3554 57.6448 36.0347 57.6448 34.4173C57.6448 32.7904 58.9655 31.4792 60.5828 31.4792C62.2002 31.4792 63.5209 32.8 63.5209 34.4173Z" fill="#B42F8F"/>
</g>
</g>
<defs>
<clipPath id="clip0_3254_4889">
<rect width="49" height="49" fill="white" transform="translate(23.0002 23)"/>
</clipPath>
</defs>
</svg>
