<svg width="96" height="96" viewBox="0 0 96 96" fill="none" xmlns="http://www.w3.org/2000/svg">
<path fill-rule="evenodd" clip-rule="evenodd" d="M81.6113 14.0031C72.9553 5.34877 61.0173 0 47.8071 0C34.5972 0 22.6589 5.34877 14.0029 14.0029C5.34777 22.6599 0 34.6245 0 47.8071C0 61.017 5.34777 72.9551 14.0029 81.6123C22.6589 90.2675 34.5972 95.6151 47.8071 95.6151C61.0173 95.6151 72.9553 90.2673 81.6113 81.6123C90.2665 72.9551 95.6153 61.017 95.6153 47.8071C95.6153 34.6247 90.2667 22.6601 81.6113 14.0031ZM78.9648 78.9905C70.9961 86.9583 59.9837 91.8826 47.8071 91.8826C35.6305 91.8826 24.6182 86.9583 16.6494 78.9905C8.65697 70.9963 3.73262 59.9847 3.73262 47.8073C3.73262 35.6315 8.65697 24.6192 16.6494 16.6514C24.6182 8.68347 35.6305 3.73282 47.8071 3.73282C59.9837 3.73282 70.9961 8.68367 78.9648 16.6514C86.9583 24.6192 91.8807 35.6315 91.8807 47.8073C91.8807 59.9847 86.9583 70.9963 78.9648 78.9905Z" fill="#B42F8F"/>
<path fill-rule="evenodd" clip-rule="evenodd" d="M37.2239 56.0969L60.943 34.6731C61.9632 33.6529 60.688 33.3979 59.4128 34.163L30.3377 52.5262L17.8405 48.7006C15.035 47.9354 15.035 45.8951 18.3506 44.6198L67.5742 25.7465C69.8696 24.7264 71.91 26.2566 71.1448 29.8273L62.7284 69.3592C62.2183 72.1647 60.4329 72.9298 58.1376 71.6546L45.3853 62.2179L39.2642 68.084C38.4991 68.8491 37.4789 68.8491 37.4789 68.084L37.2239 56.0969Z" fill="#B42F8F"/>
</svg>
