<svg width="96" height="96" viewBox="0 0 96 96" fill="none" xmlns="http://www.w3.org/2000/svg">
<path fill-rule="evenodd" clip-rule="evenodd" d="M81.7917 14.0031C73.1358 5.34877 61.1977 0 47.9875 0C34.7776 0 22.8393 5.34877 14.1834 14.0029C5.52819 22.6599 0.18042 34.6245 0.18042 47.8071C0.18042 61.017 5.52819 72.9551 14.1834 81.6123C22.8393 90.2675 34.7776 95.6151 47.9875 95.6151C61.1977 95.6151 73.1358 90.2673 81.7917 81.6123C90.4469 72.9551 95.7957 61.017 95.7957 47.8071C95.7957 34.6247 90.4471 22.6601 81.7917 14.0031ZM79.1452 78.9905C71.1765 86.9583 60.1641 91.8826 47.9875 91.8826C35.811 91.8826 24.7986 86.9583 16.8299 78.9905C8.83739 70.9963 3.91304 59.9847 3.91304 47.8073C3.91304 35.6315 8.83739 24.6192 16.8299 16.6514C24.7986 8.68347 35.811 3.73282 47.9875 3.73282C60.1641 3.73282 71.1765 8.68367 79.1452 16.6514C87.1387 24.6192 92.0611 35.6315 92.0611 47.8073C92.0611 59.9847 87.1387 70.9963 79.1452 78.9905Z" fill="#B42F8F"/>
<path fill-rule="evenodd" clip-rule="evenodd" d="M74.4316 34.4932C73.7171 33.9644 71.1497 33.9644 68.6086 33.9644C66.0141 34.0172 63.4193 34.0172 62.8102 34.2557C62.2558 34.4671 61.0113 37.485 59.3971 40.5812C57.5425 44.0771 55.2939 47.4648 53.8637 47.41C51.9847 47.41 52.4354 41.6663 52.5673 37.4057C52.5928 34.6253 52.1431 33.7247 51.7462 33.4882C50.7665 32.7989 48.0672 32.139 48.0672 32.139C48.0672 32.139 39.9653 31.5289 38.8284 35.0232C40.3897 35.2352 43.0372 34.7574 42.0047 45.5839C41.9256 46.1147 40.7601 50.561 37.0012 44.5515C36.048 43.044 32.4491 34.0172 31.1782 33.9644C27.0204 33.8843 22.8927 33.6994 21.4644 34.4932C20.1133 35.288 23.2633 41.4814 28.5845 49.7945C32.898 56.6233 37.4782 61.9185 45.4197 63.2411C46.9282 63.4013 50.794 63.5579 52.0385 62.9771C52.8576 62.5792 51.8255 56.7036 54.6585 56.1198C55.903 55.8825 60.7455 62.2624 62.5716 62.9771C63.6863 63.4268 66.1206 63.6117 68.6086 63.5049C71.3089 63.4266 74.3778 63.7709 74.6691 61.9183C75.332 57.8678 66.492 52.5719 66.2527 50.0846C66.0405 48.2847 69.4828 44.9763 71.2288 42.4345C73.3983 39.3638 75.7828 35.6584 74.4316 34.4932Z" fill="#B42F8F"/>
</svg>
